<svg xmlns="http://www.w3.org/2000/svg" width="204.107" height="46.527" viewBox="0 0 204.107 46.527">
    <defs>
        <clipPath id="8n4qwof99a">
            <path data-name="사각형 1903" style="fill:#73c6ef" d="M0 0h163.107v19.908H0z"/>
        </clipPath>
    </defs>
    <g data-name="그룹 689">
        <g data-name="그룹 289">
            <path data-name="패스 701" d="M42.6 63.1a33.351 33.351 0 0 0 10.447 2.144 20.4 20.4 0 0 0 9.715-2.14 23.028 23.028 0 0 0 11.76-15.385 27.038 27.038 0 0 0-.084-11.181.926.926 0 1 0-1.785.492 22.788 22.788 0 0 1-2.932 17.354 21.442 21.442 0 0 1-6.865 6.559 18.076 18.076 0 0 1-8.815 2.457 30.649 30.649 0 0 1-10.954-2.078.934.934 0 0 0-1.139.646.945.945 0 0 0 .652 1.132" transform="translate(-26.396 -22.511)" style="fill:#73c6ef"/>
            <path data-name="패스 702" d="M42.676 22.681c.846 3.839-.767 7.76-3.422 10.515a19.265 19.265 0 0 1-4.566 3.41 32.7 32.7 0 0 0-5.118 3.48 13 13 0 0 0-3.825 5.288h1.785q-.526-1.713-.977-3.449a34.38 34.38 0 0 1-.549-2.393c-.014-.075-.083-.546-.055-.313a6.34 6.34 0 0 1-.036-.392 17.362 17.362 0 0 1 .037-2.331 19 19 0 0 1 2.161-7.437 19.721 19.721 0 0 1 4.845-5.833 51.95 51.95 0 0 0 6.015-5.326 23.614 23.614 0 0 0 4.08-6.661c.881-2.173 1.432-4.593 2.891-6.481a7.978 7.978 0 0 1 5.846-2.9 9.6 9.6 0 0 1 4.112.612 9.08 9.08 0 0 1 3.264 2.346 10.678 10.678 0 0 1 1.294 1.722c.334.55.4 1.173.728 1.727.382.654 1.127.861 1.739 1.224a4.394 4.394 0 0 1 1.4 1.475c.632 1.009 2.234.079 1.6-.936a7.116 7.116 0 0 0-1.38-1.628 4.807 4.807 0 0 0-.817-.579 7 7 0 0 1-.856-.444c-.145-.108-.16-.2-.217-.4a5.325 5.325 0 0 0-.325-.879 10.7 10.7 0 0 0-1.168-1.766A10.763 10.763 0 0 0 54.38.153a11.09 11.09 0 0 0-7.59 1.388C44.5 2.978 43.3 5.3 42.375 7.756c-.435 1.163-.812 2.35-1.318 3.485A22.208 22.208 0 0 1 39.1 14.73a27.556 27.556 0 0 1-5.774 5.82 26.8 26.8 0 0 0-5.788 5.86 20.657 20.657 0 0 0-3.079 7.444 17.014 17.014 0 0 0-.05 7.111c.348 1.545.782 3.072 1.238 4.589.031.1.063.21.1.314a.934.934 0 0 0 1.785 0c1.381-3.745 5.222-6.026 8.5-7.889a17.3 17.3 0 0 0 7.923-8.809 12.483 12.483 0 0 0 .506-6.981c-.257-1.165-2.042-.672-1.785.493" transform="translate(-15.151)" style="fill:#73c6ef"/>
            <path data-name="패스 703" d="M106.273 23.259a.926.926 0 0 0 0-1.851.926.926 0 0 0 0 1.851" transform="translate(-66.362 -13.469)" style="fill:#73c6ef"/>
            <path data-name="패스 704" d="M10.132 82.381c-.583 2.248-2.5 3.994-4.073 5.59A62.936 62.936 0 0 1 .3 93.12c-.759.6.072 1.77.9 1.547l7.753-2.087 1.112-.3a.926.926 0 0 0-.493-1.78l-7.753 2.083-1.112.3.9 1.547a62.862 62.862 0 0 0 6-5.392c1.734-1.775 3.669-3.688 4.311-6.165a.926.926 0 0 0-1.785-.492" transform="translate(0 -51.392)" style="fill:#73c6ef"/>
        </g>
        <g data-name="그룹 286">
            <g data-name="그룹 285" style="clip-path:url(#8n4qwof99a)" transform="translate(41 26.619)">
                <path data-name="패스 692" d="M11.173 19.441H0V0h10.084a5.863 5.863 0 0 1 3.991 1.09 4.068 4.068 0 0 1 1.192 3.162 5.813 5.813 0 0 1-.752 3.227 3.533 3.533 0 0 1-2.047 1.487v.184q3.758.648 3.758 5.134a5.5 5.5 0 0 1-1.233 3.743 4.8 4.8 0 0 1-3.821 1.413M8.191 4.253h-1.97v2.9h1.917q1.193 0 1.194-1.45t-1.141-1.45m.467 7.438H6.221v3.189h2.384q1.322 0 1.322-1.608c0-1.052-.425-1.58-1.269-1.58" style="fill:#73c6ef"/>
                <path data-name="패스 693" d="M22.552 19.441H10.111V0h6.221v14.465h6.219z" transform="translate(7.643)" style="fill:#73c6ef"/>
                <path data-name="패스 694" d="M17.536 0h6.221v14.593h2.2a2.975 2.975 0 0 0 1.621-.309 1.623 1.623 0 0 0 .428-1.349V0h6.219v10.913a23.038 23.038 0 0 1-.325 4.2 5.88 5.88 0 0 1-1.241 2.787 5.088 5.088 0 0 1-2.553 1.543 15.849 15.849 0 0 1-4.225.467 15.849 15.849 0 0 1-4.225-.467 5.144 5.144 0 0 1-2.556-1.531 5.8 5.8 0 0 1-1.243-2.788 23.216 23.216 0 0 1-.325-4.211z" transform="translate(13.255)" style="fill:#73c6ef"/>
                <path data-name="패스 695" d="M40.62 12.106H34.4v2.36h7.62v4.976H28.18V0h13.685l-.776 4.976H34.4V7.6h6.22z" transform="translate(21.3)" style="fill:#73c6ef"/>
                <path data-name="패스 696" d="M52.43 19.441H41.257V0h10.084a5.862 5.862 0 0 1 3.991 1.09 4.068 4.068 0 0 1 1.192 3.162 5.813 5.813 0 0 1-.752 3.227 3.533 3.533 0 0 1-2.047 1.487v.184q3.758.648 3.758 5.134a5.5 5.5 0 0 1-1.233 3.743 4.8 4.8 0 0 1-3.821 1.413M49.448 4.253h-1.97v2.9H49.4q1.193 0 1.194-1.45t-1.141-1.45m.467 7.438h-2.442v3.189h2.384q1.322 0 1.322-1.608c0-1.052-.425-1.58-1.269-1.58" transform="translate(31.184)" style="fill:#73c6ef"/>
                <path data-name="패스 697" d="M51.1 0h6.219v14.593h2.2a2.971 2.971 0 0 0 1.621-.309 1.617 1.617 0 0 0 .428-1.349V0h6.219v10.913a22.881 22.881 0 0 1-.325 4.2 5.88 5.88 0 0 1-1.237 2.787 5.08 5.08 0 0 1-2.553 1.543 15.849 15.849 0 0 1-4.225.467 15.849 15.849 0 0 1-4.225-.467 5.144 5.144 0 0 1-2.553-1.529 5.8 5.8 0 0 1-1.243-2.788 23.234 23.234 0 0 1-.323-4.211z" transform="translate(38.627)" style="fill:#73c6ef"/>
                <path data-name="패스 698" d="M70.455 19.441h-8.709V0h8.709a15.436 15.436 0 0 1 4.381.532 6.135 6.135 0 0 1 2.825 1.7 6.782 6.782 0 0 1 1.515 3.006 18.92 18.92 0 0 1 .455 4.46 19.056 19.056 0 0 1-.455 4.47 6.792 6.792 0 0 1-1.515 3.018 6.2 6.2 0 0 1-2.825 1.714 15.026 15.026 0 0 1-4.381.544m.1-14.465h-2.588v9.489h2.592a4.179 4.179 0 0 0 1.854-.3c.372-.2.557-.651.557-1.361V6.635c0-.706-.184-1.162-.557-1.361a4.256 4.256 0 0 0-1.854-.3" transform="translate(46.671)" style="fill:#73c6ef"/>
                <path data-name="패스 699" d="M81.511 19.441H72.8V0h8.709a15.436 15.436 0 0 1 4.381.532 6.135 6.135 0 0 1 2.825 1.7 6.782 6.782 0 0 1 1.515 3.006 18.92 18.92 0 0 1 .455 4.46 19.056 19.056 0 0 1-.455 4.47 6.792 6.792 0 0 1-1.515 3.018 6.2 6.2 0 0 1-2.823 1.714 15.026 15.026 0 0 1-4.381.544m.1-14.465h-2.588v9.489h2.592a4.179 4.179 0 0 0 1.854-.3c.372-.2.557-.651.557-1.361V6.635c0-.706-.184-1.162-.557-1.361a4.256 4.256 0 0 0-1.854-.3" transform="translate(55.028)" style="fill:#73c6ef"/>
                <path data-name="패스 700" d="m89.842 0 1.71 6.844h.232L93.522 0h6.869l-5.6 14.154v5.287H88.57v-5.287L82.973 0z" transform="translate(62.716)" style="fill:#73c6ef"/>
            </g>
        </g>
    </g>
</svg>
