<svg xmlns="http://www.w3.org/2000/svg" width="165.236" height="91.001" viewBox="0 0 165.236 91.001">
  <g id="그룹_695" data-name="그룹 695" transform="translate(-5610.5 892.501)">
    <g id="logo_buddy_164px_20px" transform="translate(5611 -822)">
      <path id="logo_buddy_164px_20px-2" data-name="logo_buddy_164px_20px" d="M3668.365,564.531a5.165,5.165,0,0,1-2.567-1.536,5.823,5.823,0,0,1-1.25-2.8,23.282,23.282,0,0,1-.327-4.23V545h6.255v14.66h2.214a2.987,2.987,0,0,0,1.629-.311,1.627,1.627,0,0,0,.431-1.354V545H3681v10.963a23.111,23.111,0,0,1-.327,4.22,5.9,5.9,0,0,1-1.25,2.8,5.108,5.108,0,0,1-2.567,1.551,19.472,19.472,0,0,1-8.5,0Zm-59.261,0a5.166,5.166,0,0,1-2.567-1.536,5.823,5.823,0,0,1-1.25-2.8,23.285,23.285,0,0,1-.327-4.23V545h6.255v14.66h2.214a2.989,2.989,0,0,0,1.629-.311,1.63,1.63,0,0,0,.431-1.354V545h6.252v10.963a23.169,23.169,0,0,1-.326,4.22,5.908,5.908,0,0,1-1.25,2.8,5.107,5.107,0,0,1-2.566,1.551,19.472,19.472,0,0,1-8.5,0Zm14.646,0V545h13.76l-.78,5h-6.726v2.633h6.253v4.531h-6.253v2.37h7.663v5Zm-31.9,0V545h6.255v14.531h6.254v5Zm134.263,0V559.22L3720.486,545h6.907l1.72,6.876h.233l1.747-6.876H3738l-5.63,14.219v5.311Zm-23.584,0V545h8.756a15.55,15.55,0,0,1,4.4.534,6.172,6.172,0,0,1,2.841,1.706,6.816,6.816,0,0,1,1.523,3.02,22.264,22.264,0,0,1,0,8.971,6.836,6.836,0,0,1-1.523,3.032,6.246,6.246,0,0,1-2.841,1.72,15.122,15.122,0,0,1-4.4.546Zm6.254-5h2.606a4.2,4.2,0,0,0,1.864-.3c.375-.2.56-.655.56-1.367v-6.2c0-.709-.185-1.167-.56-1.367a4.284,4.284,0,0,0-1.864-.3h-2.606Zm-25.776,5V545h8.756a15.56,15.56,0,0,1,4.406.534,6.164,6.164,0,0,1,2.84,1.706,6.807,6.807,0,0,1,1.524,3.02,22.264,22.264,0,0,1,0,8.971,6.827,6.827,0,0,1-1.524,3.032,6.238,6.238,0,0,1-2.84,1.72,15.131,15.131,0,0,1-4.406.546Zm6.255-5h2.606a4.2,4.2,0,0,0,1.864-.3c.375-.2.56-.655.56-1.367v-6.2c0-.709-.185-1.167-.56-1.367a4.283,4.283,0,0,0-1.864-.3h-2.606Zm-42.426,5V545h10.139a5.9,5.9,0,0,1,4.013,1.1,4.084,4.084,0,0,1,1.2,3.177,5.835,5.835,0,0,1-.756,3.242,3.551,3.551,0,0,1-2.058,1.494v.184q3.778.65,3.778,5.157a5.52,5.52,0,0,1-1.239,3.761,4.827,4.827,0,0,1-3.841,1.42Zm6.255-4.582h2.4q1.329,0,1.329-1.616,0-1.585-1.277-1.588h-2.451Zm0-7.762h1.929q1.2,0,1.2-1.457t-1.148-1.457h-1.981ZM3574,564.531V545h10.141a5.9,5.9,0,0,1,4.013,1.1,4.092,4.092,0,0,1,1.2,3.177,5.855,5.855,0,0,1-.756,3.242,3.564,3.564,0,0,1-2.059,1.494v.184q3.777.65,3.779,5.157a5.507,5.507,0,0,1-1.242,3.761,4.821,4.821,0,0,1-3.84,1.42Zm6.257-4.582h2.4q1.33,0,1.331-1.616c0-1.057-.429-1.588-1.276-1.588h-2.45Zm0-7.762h1.925c.8,0,1.2-.485,1.2-1.457s-.381-1.457-1.147-1.457h-1.979Z" transform="translate(-3574 -545)" fill="#73c6ef" stroke="rgba(0,0,0,0)" stroke-miterlimit="10" stroke-width="1"/>
    </g>
    <g id="ico_buddy_60px_55px" transform="translate(5663 -892)">
      <path id="ico_buddy" d="M3999.5,599.994a1.035,1.035,0,0,1-1.044-.778c-.038-.124-.075-.248-.113-.372-.515-1.731-1.007-3.472-1.409-5.234l-.26.071-9.115,2.471a.947.947,0,0,1-.362.026c-.893.031-1.671-1.207-.845-1.865a74.031,74.031,0,0,0,6.772-6.1c1.588-1.619,3.465-3.367,4.4-5.507a24.311,24.311,0,0,1,3.041-6.5,31.6,31.6,0,0,1,6.8-6.926,32.5,32.5,0,0,0,6.787-6.88,26.3,26.3,0,0,0,2.3-4.123c.6-1.341,1.038-2.746,1.55-4.12,1.082-2.9,2.5-5.647,5.19-7.346a12.579,12.579,0,0,1,7.282-1.806,14.652,14.652,0,0,1,1.787.171,13.9,13.9,0,0,1,9.345,7.026,6.324,6.324,0,0,1,.382,1.039c.068.231.085.345.256.473a8.162,8.162,0,0,0,1.006.524,5.653,5.653,0,0,1,.959.685,8.4,8.4,0,0,1,1.615,1.933,1.078,1.078,0,0,1-1.088,1.61,1.018,1.018,0,0,1-.938-.511,5.2,5.2,0,0,0-1.64-1.744c-.72-.43-1.595-.674-2.045-1.447-.381-.655-.462-1.391-.855-2.042a12.621,12.621,0,0,0-1.521-2.035,10.672,10.672,0,0,0-3.837-2.774,10.97,10.97,0,0,0-3.517-.733c-.389-.012-.78-.008-1.168.018a9.36,9.36,0,0,0-6.872,3.425c-1.715,2.231-2.362,5.091-3.4,7.66a27.947,27.947,0,0,1-4.8,7.873,61.231,61.231,0,0,1-7.071,6.3,23.261,23.261,0,0,0-5.695,6.894,22.359,22.359,0,0,0-1.213,2.741c-.006.031-.007.06-.015.092a8.786,8.786,0,0,1-.452,1.3,22.425,22.425,0,0,0-.861,4.655,20.644,20.644,0,0,0-.044,2.756c.008.13.021.261.036.392.008.036.058.374.07.44.17.952.4,1.893.645,2.829.109.421.227.842.341,1.261a16.345,16.345,0,0,1,3.058-3.442,38.387,38.387,0,0,1,6.015-4.113,22.673,22.673,0,0,0,5.368-4.031c3.122-3.255,5.018-7.89,4.023-12.429a1.137,1.137,0,0,1,1.273-1.358.933.933,0,0,1,.973.781,14.832,14.832,0,0,1-.595,8.253,20.42,20.42,0,0,1-9.314,10.413c-.92.525-1.877,1.079-2.824,1.678a35.253,35.253,0,0,0,9.049,1.727c.525.02,1.052.026,1.579.015a21.127,21.127,0,0,0,10.362-2.9,25.3,25.3,0,0,0,8.071-7.766c4.009-6.075,4.891-13.489,3.446-20.545a1.12,1.12,0,0,1,.76-1.348,1.064,1.064,0,0,1,.42-.025,1.081,1.081,0,0,1,1.067.8,32.255,32.255,0,0,1,.1,13.237,27.24,27.24,0,0,1-13.829,18.218,23.832,23.832,0,0,1-11.421,2.534l-.127-.006h-.022a38.333,38.333,0,0,1-11.746-2.354,13.83,13.83,0,0,0-4.878,6.067,1.162,1.162,0,0,1-1.089.778A1.071,1.071,0,0,1,3999.5,599.994Zm-4.409-10.507q-1.607,1.656-3.315,3.2l4.791-1.3a19.5,19.5,0,0,1-.028-3.415C3996.056,588.494,3995.566,589,3995.089,589.487Zm36.738-34.009a1.09,1.09,0,1,1,1.09,1.1A1.094,1.094,0,0,1,4031.827,555.478Z" transform="translate(-3986 -545)" fill="#73c6ef" stroke="rgba(0,0,0,0)" stroke-miterlimit="10" stroke-width="1"/>
    </g>
  </g>
</svg>
