<svg xmlns="http://www.w3.org/2000/svg" width="603" height="603" viewBox="0 0 603 603">
  <g id="그룹_785" data-name="그룹 785" transform="translate(-7316 2444)">
    <circle id="타원_201" data-name="타원 201" cx="301.5" cy="301.5" r="301.5" transform="translate(7316 -2444)" fill="#73c6ef"/>
    <g id="ico_buddy_60px_55px" transform="translate(7427 -2318)">
      <path id="ico_buddy" d="M85.938,350.962A6.59,6.59,0,0,1,79.292,346c-.246-.789-.477-1.584-.717-2.372-3.282-11.045-6.413-22.16-8.97-33.4-.556.146-1.1.3-1.659.451L9.916,326.443a6.023,6.023,0,0,1-2.3.167c-5.687.2-10.641-7.7-5.381-11.9a471.855,471.855,0,0,0,43.117-38.9c10.108-10.33,22.06-21.486,28.026-35.144a155.248,155.248,0,0,1,19.359-41.452c11.723-17.582,27.041-31.075,43.323-44.2C152.2,142,167.51,128.428,179.271,111.107a167.929,167.929,0,0,0,14.62-26.312c3.791-8.559,6.606-17.525,9.868-26.293,6.89-18.536,15.93-36.041,33.047-46.882C250.585,2.889,267.02-.628,283.169.091a93.05,93.05,0,0,1,11.377,1.094C314.953,4.421,332.78,16.318,345.3,32.7a81.4,81.4,0,0,1,8.743,13.321,40.454,40.454,0,0,1,2.43,6.632c.436,1.475.544,2.2,1.632,3.02,1.884,1.418,4.347,2.213,6.408,3.345a36.059,36.059,0,0,1,6.108,4.369A53.588,53.588,0,0,1,380.9,75.727c3.451,5.551-1.915,10.74-6.929,10.275A6.477,6.477,0,0,1,368,82.741c-2.657-4.273-6.1-8.521-10.441-11.128-4.587-2.741-10.156-4.3-13.023-9.233C342.114,58.2,341.6,53.5,339.1,49.351a80.5,80.5,0,0,0-9.687-12.984c-6.834-7.426-15-13.982-24.427-17.7a69.719,69.719,0,0,0-22.393-4.68c-2.474-.077-4.962-.051-7.438.114-16.725,1.068-33.341,8.28-43.753,21.855-10.923,14.237-15.041,32.493-21.637,48.886a178.414,178.414,0,0,1-30.538,50.246c-13.286,15.369-29.641,27.113-45.02,40.174-14.751,12.527-27.168,26.751-36.254,44a143,143,0,0,0-7.723,17.493c-.038.2-.044.382-.094.585a56.125,56.125,0,0,1-2.88,8.31,143.539,143.539,0,0,0-5.479,29.708A132.465,132.465,0,0,0,81.5,292.94c.052.833.131,1.666.227,2.5.05.229.371,2.385.448,2.81,1.082,6.073,2.568,12.082,4.106,18.052.694,2.69,1.442,5.373,2.174,8.05a104.225,104.225,0,0,1,19.469-21.969,244.375,244.375,0,0,1,38.3-26.248c12.54-7.052,24.173-15.268,34.176-25.728,19.876-20.774,31.949-50.355,25.611-79.318-1.228-5.634,3.818-9.163,8.107-8.667a5.941,5.941,0,0,1,6.194,4.985,94.864,94.864,0,0,1-3.787,52.669c-10.556,28.907-33.082,51.448-59.3,66.455-5.858,3.35-11.95,6.886-17.979,10.707,18.721,5.939,38.015,10.149,57.612,11.02,3.345.127,6.7.165,10.053.1a134.27,134.27,0,0,0,65.969-18.536,161.24,161.24,0,0,0,51.387-49.559c25.523-38.769,31.14-86.084,21.939-131.116-.754-3.707,1.032-7.541,4.837-8.6a6.761,6.761,0,0,1,2.676-.159c3.026.013,6.156,1.99,6.792,5.087,5.687,27.845,6.6,56.586.629,84.475C350.676,238.8,317.4,283.484,273.091,306.2a151.43,151.43,0,0,1-72.713,16.17c-.273-.007-.542-.032-.807-.038h-.14c-25.555-.585-50.718-6.562-74.78-15.02-13.511,10.333-25.221,22.764-31.061,38.718A7.4,7.4,0,0,1,86.655,351,6.805,6.805,0,0,1,85.938,350.962ZM57.868,283.91q-10.232,10.566-21.107,20.453l30.5-8.293a124.772,124.772,0,0,1-.177-21.793C64.025,277.571,60.907,280.769,57.868,283.91Zm233.9-217.04a6.938,6.938,0,1,1,6.942,7.007A6.974,6.974,0,0,1,291.768,66.87Z" transform="translate(0 0)" fill="#fff" stroke="rgba(0,0,0,0)" stroke-miterlimit="10" stroke-width="1"/>
    </g>
  </g>
</svg>
