<svg xmlns="http://www.w3.org/2000/svg" width="84.774" height="89.013" viewBox="0 0 84.774 89.013">
    <g transform="translate(-2 -1)">
        <path data-name="패스 1094" d="M66.683 38v9.675a5.787 5.787 0 0 1-5.768 5.805H14.768A5.787 5.787 0 0 1 9 47.675V38z" transform="translate(6.545 34.597)" style="fill:#cad6e3"/>
        <path data-name="패스 1095" d="M66.683 7.805v63.857H9V7.805A5.787 5.787 0 0 1 14.768 2h46.147a5.787 5.787 0 0 1 5.768 5.805z" transform="translate(6.545 .935)" style="fill:#cad6e3"/>
        <path data-name="사각형 2190" transform="translate(21.781 8.064)" style="fill:#f8f9f9" d="M0 0h46.257v64.993H0z"/>
        <path data-name="패스 1096" d="M37.351 8.87H21.87A3.87 3.87 0 0 1 18 5h23.221a3.87 3.87 0 0 1-3.87 3.87z" transform="translate(14.777 3.74)" style="fill:#cad6e3"/>
        <path data-name="패스 1097" d="M2 24.87v7.74a3.87 3.87 0 0 0 3.87 3.87h38.7l9.675 5.805V36.48h3.87a3.87 3.87 0 0 0 3.87-3.87v-7.74A3.87 3.87 0 0 0 58.117 21H5.87A3.87 3.87 0 0 0 2 24.87z" transform="translate(0 18.701)" style="fill:#f8f9f9"/>
        <path data-name="패스 1098" d="M27.805 44.87h-3.87a1.935 1.935 0 1 1 0-3.87h3.87a1.935 1.935 0 0 1 0 3.87z" transform="translate(18.517 37.402)" style="fill:#f8f9f9"/>
        <path data-name="패스 1099" d="M2 24.87v7.74a3.87 3.87 0 0 0 3.87 3.87h38.7l9.675 5.805V36.48h3.87a3.87 3.87 0 0 0 3.87-3.87v-7.74A3.87 3.87 0 0 0 58.117 21H5.87A3.87 3.87 0 0 0 2 24.87z" transform="translate(0 18.701)" style="fill:#b3cdda"/>
        <path data-name="패스 1100" d="M73.052 17.87v7.74a3.87 3.87 0 0 1-3.87 3.87H32.416l-9.676 5.806V29.48h-3.87A3.87 3.87 0 0 1 15 25.61v-7.74A3.87 3.87 0 0 1 18.87 14h50.312a3.87 3.87 0 0 1 3.87 3.87z" transform="translate(11.787 12.156)" style="fill:#f8f9f9"/>
        <path data-name="패스 1101" d="M75.388 24.221h-5.777V8.74A7.721 7.721 0 0 0 61.91 1H15.7A7.721 7.721 0 0 0 8 8.74V39.7h3.851V8.74A3.86 3.86 0 0 1 15.7 4.87h46.21a3.86 3.86 0 0 1 3.851 3.87v15.48H25.328a5.791 5.791 0 0 0-5.776 5.805c0 8.534-.116 8.495.347 9.675a5.778 5.778 0 0 0 5.43 3.87h1.925v3.87a1.937 1.937 0 0 0 .972 1.681 1.917 1.917 0 0 0 1.935-.017l9.184-5.534h26.416v27.092h-53.91v-15.48H8v27.09a7.721 7.721 0 0 0 7.7 7.74h46.21a7.721 7.721 0 0 0 7.7-7.74v-38.7h5.776a5.791 5.791 0 0 0 5.776-5.805v-7.74a5.791 5.791 0 0 0-5.774-5.806zm-9.627 58.051a3.86 3.86 0 0 1-3.851 3.87H15.7a3.86 3.86 0 0 1-3.851-3.87v-7.74h53.91zm11.552-44.506a1.93 1.93 0 0 1-1.925 1.934H38.806c-.732 0-.462 0-7.7 4.315v-2.38a1.93 1.93 0 0 0-1.927-1.935h-3.851a1.93 1.93 0 0 1-1.928-1.934v-7.74a1.93 1.93 0 0 1 1.925-1.935h50.063a1.93 1.93 0 0 1 1.925 1.935z" transform="translate(5.61)" style="fill:#a2b5cb"/>
        <circle data-name="타원 173" cx="2.119" cy="2.119" r="2.119" transform="translate(44.194 32.084)" style="fill:#cad6e3"/>
        <circle data-name="타원 174" cx="2.119" cy="2.119" r="2.119" transform="translate(54.039 32.084)" style="fill:#cad6e3"/>
        <circle data-name="타원 175" cx="2.119" cy="2.119" r="2.119" transform="translate(63.884 32.084)" style="fill:#cad6e3"/>
    </g>
</svg>
