<svg xmlns="http://www.w3.org/2000/svg" width="89" height="89.013" viewBox="0 0 89 89.013">
    <g transform="translate(-1 -1)">
        <rect data-name="사각형 2195" width="73" height="58" rx="2" transform="translate(3 3)" style="fill:#f8f9f9"/>
        <path data-name="패스 1112" d="M5.87 2h65.782a3.87 3.87 0 0 1 3.87 3.87v9.674H2V5.87A3.87 3.87 0 0 1 5.87 2z" transform="translate(.935 .935)" style="fill:#cad6e3"/>
        <circle data-name="타원 176" cx="2" cy="2" r="2" transform="translate(67 9)" style="fill:#f8f9f9"/>
        <circle data-name="타원 177" cx="2" cy="2" r="2" transform="translate(59 9)" style="fill:#f8f9f9"/>
        <circle data-name="타원 178" cx="2" cy="2" r="2" transform="translate(9 9)" style="fill:#f8f9f9"/>
        <path data-name="패스 1113" d="M38.152 8.87H14.935a1.935 1.935 0 0 1 0-3.87h23.217a1.935 1.935 0 1 1 0 3.87z" transform="translate(11.217 3.739)" style="fill:#f8f9f9"/>
        <rect data-name="사각형 2196" width="73" height="58" rx="2" transform="translate(15 22)" style="fill:#f8f9f9"/>
        <circle data-name="타원 179" cx="2" cy="2" r="2" transform="translate(22 67)" style="fill:#cad6e3"/>
        <path data-name="패스 1114" d="M11.87 12h65.782a3.87 3.87 0 0 1 3.87 3.87v9.674H8V15.87A3.87 3.87 0 0 1 11.87 12z" transform="translate(6.543 10.283)" style="fill:#cad6e3"/>
        <path data-name="패스 1115" d="M84.2 20.348h-5.8V6.8A5.8 5.8 0 0 0 72.6 1H6.8A5.8 5.8 0 0 0 1 6.8v50.3a5.8 5.8 0 0 0 5.8 5.8h5.8v13.557a5.8 5.8 0 0 0 5.8 5.8h65.8a5.8 5.8 0 0 0 5.8-5.8v-50.3a5.8 5.8 0 0 0-5.8-5.8zM6.8 59.043a1.935 1.935 0 0 1-1.93-1.934V6.8A1.935 1.935 0 0 1 6.8 4.87h65.787a1.935 1.935 0 0 1 1.935 1.93v13.548H18.413a5.8 5.8 0 0 0-5.8 5.8v32.895zm79.33 17.414a1.935 1.935 0 0 1-1.93 1.934H18.413a1.935 1.935 0 0 1-1.935-1.935v-50.3a1.935 1.935 0 0 1 1.935-1.935H84.2a1.935 1.935 0 0 1 1.935 1.935z" style="fill:#a2b5cb"/>
        <circle data-name="타원 180" cx="2" cy="2" r="2" transform="translate(78 28)" style="fill:#f8f9f9"/>
        <circle data-name="타원 181" cx="2" cy="2" r="2" transform="translate(71 28)" style="fill:#f8f9f9"/>
        <circle data-name="타원 182" cx="2" cy="2" r="2" transform="translate(20 28)" style="fill:#f8f9f9"/>
        <path data-name="패스 1116" d="M44.152 18.87H20.935a1.935 1.935 0 1 1 0-3.87h23.217a1.935 1.935 0 1 1 0 3.87z" transform="translate(16.826 13.087)" style="fill:#f8f9f9"/>
        <path data-name="패스 1117" d="M56.63 26.87h-38.7a1.935 1.935 0 1 1 0-3.87h38.7a1.935 1.935 0 0 1 0 3.87z" transform="translate(14.022 20.565)" style="fill:#cad6e3"/>
        <circle data-name="타원 183" cx="2" cy="2" r="2" transform="translate(22 43)" style="fill:#cad6e3"/>
        <path data-name="패스 1118" d="M25.674 30.87h-7.739a1.935 1.935 0 1 1 0-3.87h7.739a1.935 1.935 0 0 1 0 3.87z" transform="translate(14.022 24.304)" style="fill:#cad6e3"/>
        <path data-name="패스 1119" d="M33.674 30.87h-7.739a1.935 1.935 0 0 1 0-3.87h7.739a1.935 1.935 0 1 1 0 3.87z" transform="translate(21.5 24.304)" style="fill:#cad6e3"/>
        <circle data-name="타원 184" cx="2" cy="2" r="2" transform="translate(22 51)" style="fill:#cad6e3"/>
        <path data-name="패스 1120" d="M39.283 34.87H19.935a1.935 1.935 0 0 1 0-3.87h19.348a1.935 1.935 0 0 1 0 3.87z" transform="translate(15.891 28.043)" style="fill:#cad6e3"/>
        <circle data-name="타원 185" cx="13.5" cy="13.5" r="13.5" transform="translate(51 55)" style="fill:#f8f9f9"/>
        <circle data-name="타원 186" cx="2" cy="2" r="2" transform="translate(22 59)" style="fill:#cad6e3"/>
        <path data-name="패스 1121" d="M27.674 38.87h-7.739a1.935 1.935 0 0 1 0-3.87h7.739a1.935 1.935 0 1 1 0 3.87z" transform="translate(15.891 31.783)" style="fill:#cad6e3"/>
        <path data-name="패스 1122" d="M41.473 58.957a15.478 15.478 0 1 1 10.951-26.429 15.478 15.478 0 0 1-10.951 26.429zm0-27.087a11.609 11.609 0 1 0 10.715 7.168 11.609 11.609 0 0 0-10.715-7.168z" transform="translate(23.375 25.239)" style="fill:#b3cdda"/>
        <path data-name="패스 1123" d="M51.048 53.048a3.87 3.87 0 0 1-5.475 0l-8.243-8.243a13.679 13.679 0 0 0 5.475-5.475l8.242 8.242a3.87 3.87 0 0 1 0 5.475z" transform="translate(33.961 35.83)" style="fill:#b3cdda"/>
    </g>
</svg>
