<svg xmlns="http://www.w3.org/2000/svg" width="30" height="30" viewBox="0 0 30 30">
  <g id="icon_calendar" transform="translate(9209 3647)">
    <rect id="사각형_2131" data-name="사각형 2131" width="30" height="30" transform="translate(-9209 -3647)" fill="none"/>
    <path id="icon_calendar-2" data-name="icon_calendar" d="M0,19.679a2.036,2.036,0,0,0,2.036,2.036H16.964A2.036,2.036,0,0,0,19,19.679V8.143H0Zm13.571-8.312a.51.51,0,0,1,.509-.509h1.7a.51.51,0,0,1,.509.509v1.7a.51.51,0,0,1-.509.509h-1.7a.51.51,0,0,1-.509-.509Zm0,5.429a.51.51,0,0,1,.509-.509h1.7a.51.51,0,0,1,.509.509v1.7a.51.51,0,0,1-.509.509h-1.7a.51.51,0,0,1-.509-.509ZM8.143,11.366a.51.51,0,0,1,.509-.509h1.7a.51.51,0,0,1,.509.509v1.7a.51.51,0,0,1-.509.509h-1.7a.51.51,0,0,1-.509-.509Zm0,5.429a.51.51,0,0,1,.509-.509h1.7a.51.51,0,0,1,.509.509v1.7a.51.51,0,0,1-.509.509h-1.7a.51.51,0,0,1-.509-.509ZM2.714,11.366a.51.51,0,0,1,.509-.509h1.7a.51.51,0,0,1,.509.509v1.7a.51.51,0,0,1-.509.509h-1.7a.51.51,0,0,1-.509-.509Zm0,5.429a.51.51,0,0,1,.509-.509h1.7a.51.51,0,0,1,.509.509v1.7A.51.51,0,0,1,4.919,19h-1.7a.51.51,0,0,1-.509-.509ZM16.964,2.714H14.929V.679A.68.68,0,0,0,14.25,0H12.893a.68.68,0,0,0-.679.679V2.714H6.786V.679A.68.68,0,0,0,6.107,0H4.75a.68.68,0,0,0-.679.679V2.714H2.036A2.036,2.036,0,0,0,0,4.75V6.786H19V4.75A2.036,2.036,0,0,0,16.964,2.714Z" transform="translate(-9203.5 -3643)" fill="#143760"/>
  </g>
</svg>
