<svg xmlns="http://www.w3.org/2000/svg" width="30" height="30" viewBox="0 0 30 30">
  <g id="icon_user" transform="translate(9209 3491)">
    <rect id="사각형_2135" data-name="사각형 2135" width="30" height="30" transform="translate(-9209 -3491)" fill="none"/>
    <path id="icon_user-2" data-name="icon_user" d="M11,.563a11,11,0,1,0,11,11,11,11,0,0,0-11-11Zm0,4.258a3.9,3.9,0,1,1-3.9,3.9,3.9,3.9,0,0,1,3.9-3.9Zm0,15.258a8.5,8.5,0,0,1-6.5-3.028A4.945,4.945,0,0,1,8.871,14.4a1.085,1.085,0,0,1,.315.049A5.872,5.872,0,0,0,11,14.756a5.85,5.85,0,0,0,1.814-.306,1.085,1.085,0,0,1,.315-.049A4.945,4.945,0,0,1,17.5,17.051,8.5,8.5,0,0,1,11,20.078Z" transform="translate(-9204.999 -3487.563)" fill="#143760"/>
  </g>
</svg>
