<svg xmlns="http://www.w3.org/2000/svg" width="30" height="30" viewBox="0 0 30 30">
  <g id="icon_myshop" transform="translate(9209 3578)">
    <rect id="사각형_2133" data-name="사각형 2133" width="30" height="30" transform="translate(-9209 -3578)" fill="none"/>
    <path id="icon_myshop-2" data-name="icon_myshop" d="M9.6,4.289l-1.3,1.763H5.28a2.824,2.824,0,0,0,3.3,1.736A13.567,13.567,0,0,1,11.5,7.65c.942.226.549.227,2.238,1.582l6.414,4.94a1.118,1.118,0,0,0,1.631-.246,1.4,1.4,0,0,0-.033-1.885L13.1,5.52a3.645,3.645,0,0,1-1.065-2.13A4.042,4.042,0,0,0,8.327.745,4.162,4.162,0,0,0,5.111,2.857h3.2ZM18.91,17.234l-3.292-5.712c-.13-.237-.459-.676-.729-.676H5.724c-.27,0-.6.439-.729.676l-3.21,5.715H1.7c-.541,0-.983.2-.983.74v4.916c0,.541.444.74.983.74H2.85v1.721a1.348,1.348,0,0,0,1.311,1.471h.492a1.411,1.411,0,0,0,1.393-1.475V23.628h8.522v1.721a1.411,1.411,0,0,0,1.393,1.475h.492a1.348,1.348,0,0,0,1.312-1.475V23.628h1.147c.541,0,.983-.2.983-.74V17.974c0-.541-.443-.737-.984-.737ZM3.424,20.924a1.229,1.229,0,1,1,.87-.36,1.229,1.229,0,0,1-.87.36Zm.98-3.687,2-4.172c.121-.242.444-.624.712-.624H13.5c.27,0,.592.382.712.624l1.993,4.169Zm12.782,3.687A1.229,1.229,0,1,1,18.415,19.7,1.229,1.229,0,0,1,17.186,20.924Z" transform="translate(-9204.72 -3576.745)" fill="#143760"/>
  </g>
</svg>
