<svg xmlns="http://www.w3.org/2000/svg" width="33" height="33" viewBox="0 0 33 33">
  <g id="그룹_697" data-name="그룹 697" transform="translate(-676 -721)">
    <circle id="타원_207" data-name="타원 207" cx="16.5" cy="16.5" r="16.5" transform="translate(676 721)" fill="#00abff"/>
    <path id="Icon_awesome-info" data-name="Icon awesome-info" d="M.622,13.184h.622V8.695H.622A.622.622,0,0,1,0,8.073V6.589a.622.622,0,0,1,.622-.622H4.1a.622.622,0,0,1,.622.622v6.6h.622a.622.622,0,0,1,.622.622v1.485a.622.622,0,0,1-.622.622H.622A.622.622,0,0,1,0,15.291V13.806A.622.622,0,0,1,.622,13.184ZM2.984,0A2.238,2.238,0,1,0,5.221,2.238,2.238,2.238,0,0,0,2.984,0Z" transform="translate(689.65 729.044)" fill="#fff"/>
  </g>
</svg>
