<svg xmlns="http://www.w3.org/2000/svg" width="603" height="603" viewBox="0 0 603 603">
  <g id="그룹_784" data-name="그룹 784" transform="translate(-6573 2444)">
    <circle id="타원_201" data-name="타원 201" cx="301.5" cy="301.5" r="301.5" transform="translate(6573 -2444)" fill="#f9e000"/>
    <path id="kakao-svgrepo-com" d="M182.863,48q46.068,0,85.216,17.932t61.9,48.767q22.75,30.834,22.75,67.267t-22.75,67.362q-22.749,30.929-61.8,48.861t-85.31,17.932a226.584,226.584,0,0,1-30.143-2.087Q85.229,360.9,80.87,361.471a4.847,4.847,0,0,1-3.981-.189,3.455,3.455,0,0,1-1.138-1.519,4.66,4.66,0,0,1-.379-1.708V357.3q1.138-7.4,17.252-61.67-36.589-18.216-58.106-48.292T13,181.965q0-36.433,22.75-67.267t61.9-48.767Q136.8,48,182.863,48Z" transform="translate(6691.637 -2331.904)" fill="#171717"/>
  </g>
</svg>
