<svg xmlns="http://www.w3.org/2000/svg" width="88.999" height="89.013" viewBox="0 0 88.999 89.013">
  <defs>
    <style>
      .cls-1 {
        fill: #cad6e3;
      }

      .cls-2 {
        fill: #f8f9f9;
      }

      .cls-3 {
        fill: #a2b5cb;
      }

      .cls-4 {
        fill: #b3cdda;
      }
    </style>
  </defs>
  <g id="Spam" transform="translate(-1 -0.994)">
    <path id="패스_1164" data-name="패스 1164" class="cls-1" d="M47.685,18V52.826a3.87,3.87,0,0,1-1.277,2.844L23.5,37.348Z" transform="translate(21.032 15.897)"/>
    <path id="패스_1165" data-name="패스 1165" class="cls-2" d="M65.888,46.322A3.676,3.676,0,0,1,63.3,47.348H5.253A3.676,3.676,0,0,1,2.66,46.322L25.568,28c2.38,1.935,4.508,3.87,8.706,3.87A12.75,12.75,0,0,0,42.981,28Z" transform="translate(1.552 25.245)"/>
    <path id="패스_1166" data-name="패스 1166" class="cls-1" d="M26.185,37.348,3.277,55.67A3.87,3.87,0,0,1,2,52.826V18Z" transform="translate(0.935 15.897)"/>
    <path id="패스_1167" data-name="패스 1167" class="cls-1" d="M67.782,32.956l-26,20.8a11.009,11.009,0,0,1-13.776,0L2,32.956,34.891,2Z" transform="translate(0.935 0.941)"/>
    <path id="패스_1168" data-name="패스 1168" class="cls-3" d="M64.847,74.527H6.8a5.8,5.8,0,0,1-5.8-5.8V33.9a1.935,1.935,0,0,1,.6-1.412L34.491,1.528a1.935,1.935,0,0,1,2.67,0L70.052,32.484a1.935,1.935,0,0,1,.6,1.412V68.723A5.8,5.8,0,0,1,64.847,74.527ZM4.87,34.729V68.723A1.935,1.935,0,0,0,6.8,70.657H64.847a1.935,1.935,0,0,0,1.935-1.935V34.729L35.826,5.591Z" transform="translate(0 0)"/>
    <path id="패스_1169" data-name="패스 1169" class="cls-2" d="M53.434,7V36.022L37.1,49.081a11.009,11.009,0,0,1-13.776,0L7,36.022V7Z" transform="translate(5.609 5.614)"/>
    <path id="패스_1170" data-name="패스 1170" class="cls-3" d="M27.714,41.238,1.731,20.439a1.928,1.928,0,0,1,2.4-3.018l26,20.857a9.345,9.345,0,0,0,11.376,0l26-20.857a1.935,1.935,0,0,1,2.4,3.018l-25.984,20.8a12.982,12.982,0,0,1-16.213,0Z" transform="translate(0.005 14.967)"/>
    <path id="패스_1171" data-name="패스 1171" class="cls-3" d="M47.28,49.142c-.967,0,.89,1.258-24.107-18.748a1.935,1.935,0,0,1,2.4-3.018L48.557,45.7a1.935,1.935,0,0,1-1.277,3.444Z" transform="translate(20.16 24.359)"/>
    <path id="패스_1172" data-name="패스 1172" class="cls-3" d="M3.628,49.241A1.935,1.935,0,0,1,2.351,45.8L25.258,27.475a1.935,1.935,0,1,1,2.4,3.018C2.776,50.46,4.595,49.241,3.628,49.241Z" transform="translate(0.584 24.26)"/>
    <path id="패스_1173" data-name="패스 1173" class="cls-2" d="M50.413,57.956,33,50.217V34.739L50.413,27Z" transform="translate(29.913 24.31)"/>
    <path id="패스_1174" data-name="패스 1174" class="cls-1" d="M39.543,46.478H29.87A3.87,3.87,0,0,1,26,42.609V34.87A3.87,3.87,0,0,1,29.87,31h9.674Z" transform="translate(23.369 28.049)"/>
    <path id="패스_1175" data-name="패스 1175" class="cls-1" d="M45.87,63.7A3.87,3.87,0,0,1,42,59.826V28.87a3.87,3.87,0,0,1,7.739,0V59.826A3.87,3.87,0,0,1,45.87,63.7Z" transform="translate(38.326 22.44)"/>
    <path id="패스_1176" data-name="패스 1176" class="cls-3" d="M51.348,60.824c-.6,0,.677.484-18.206-7.913A1.935,1.935,0,0,1,32,51.15V35.672a1.935,1.935,0,0,1,1.142-1.761l17.413-7.739a1.935,1.935,0,0,1,2.728,1.761V58.889A1.935,1.935,0,0,1,51.348,60.824ZM35.87,49.892,49.413,55.91v-25L35.87,36.929Z" transform="translate(28.978 23.377)"/>
    <path id="패스_1177" data-name="패스 1177" class="cls-3" d="M40.478,49.348H30.8a5.8,5.8,0,0,1-5.8-5.8V35.8A5.8,5.8,0,0,1,30.8,30h9.674a1.935,1.935,0,0,1,1.935,1.935V47.413A1.935,1.935,0,0,1,40.478,49.348ZM30.8,33.87A1.935,1.935,0,0,0,28.87,35.8v7.739A1.935,1.935,0,0,0,30.8,45.478h7.739V33.87Z" transform="translate(22.434 27.114)"/>
    <path id="패스_1178" data-name="패스 1178" class="cls-3" d="M46.8,66.565a5.8,5.8,0,0,1-5.8-5.8V29.8a5.8,5.8,0,0,1,11.609,0V60.761A5.8,5.8,0,0,1,46.8,66.565Zm0-38.7A1.935,1.935,0,0,0,44.87,29.8V60.761a1.935,1.935,0,1,0,3.87,0V29.8A1.935,1.935,0,0,0,46.8,27.87Z" transform="translate(37.391 21.505)"/>
    <path id="패스_1179" data-name="패스 1179" class="cls-3" d="M38.644,55.414h-5.8A1.935,1.935,0,0,1,30.9,54l-3.87-13.543A1.935,1.935,0,0,1,28.97,38h7.739a1.935,1.935,0,0,1,1.935,1.664l1.935,13.543a1.935,1.935,0,0,1-1.935,2.206Zm-4.353-3.87h2.128L35.026,41.87H31.543Z" transform="translate(24.269 34.592)"/>
    <path id="패스_1180" data-name="패스 1180" class="cls-3" d="M54.369,38.891a1.935,1.935,0,0,1-1.935-1.935V9.87H9.87V36.956a1.935,1.935,0,1,1-3.87,0V7.935A1.935,1.935,0,0,1,7.935,6H54.369A1.935,1.935,0,0,1,56.3,7.935V36.956A1.935,1.935,0,0,1,54.369,38.891Z" transform="translate(4.674 4.68)"/>
    <path id="패스_1181" data-name="패스 1181" class="cls-4" d="M22.8,25.543h-3.87L17,12h7.739Z" transform="translate(14.956 10.288)"/>
    <circle id="타원_199" data-name="타원 199" class="cls-4" cx="2" cy="2" r="2" transform="translate(34 39.994)"/>
  </g>
</svg>
