<svg xmlns="http://www.w3.org/2000/svg" width="187" height="153" viewBox="0 0 187 153">
    <defs>
        <linearGradient id="immt4jfpua" x1=".5" y1="1" x2=".5" gradientUnits="objectBoundingBox">
            <stop offset="0" stop-color="gray" stop-opacity=".251"/>
            <stop offset=".54" stop-color="gray" stop-opacity=".122"/>
            <stop offset="1" stop-color="gray" stop-opacity=".102"/>
        </linearGradient>
        <linearGradient id="39t2zon2ab" x1=".5" y1="1" x2=".5" gradientUnits="objectBoundingBox">
            <stop offset="0" stop-opacity=".102"/>
            <stop offset=".47" stop-opacity=".302"/>
            <stop offset="1" stop-opacity=".502"/>
        </linearGradient>
    </defs>
    <g data-name="그룹 761">
        <ellipse data-name="타원 131" cx="35.622" cy="5.356" rx="35.622" ry="5.356" transform="translate(0 142.288)" style="opacity:.1;fill:#143760"/>
        <path data-name="패스 796" d="M816.527 593.779s4.6 1.52 4.775 1.92a6.37 6.37 0 0 0 1.827.948 2.125 2.125 0 0 1 .133-1.349c.033-.049.1-.126.175-.222a23.781 23.781 0 0 0-1.253-2.59 6 6 0 0 1-.754-3.012l-.524-1.892s-.74-3.529-.74-3.815v-3.7s-.058-.539-.124-1.188a4.825 4.825 0 0 1-1.468-2.2l.534-.637a2.077 2.077 0 0 1-.365-.623 2.217 2.217 0 0 1-.131-.817 3.221 3.221 0 0 1 .038-.483.052.052 0 0 1 0 .016 5.653 5.653 0 0 1 .391-1.255 7.188 7.188 0 0 0 .808-2.475c.1-2.391-2.663-4.073-2.822-6.457v-.307a3.741 3.741 0 0 1 .031-.4.052.052 0 0 1 0 .016 5.059 5.059 0 0 1 1.845-2.967c1.087-.907 2.387-1.515 3.555-2.318a15.307 15.307 0 0 1 3.542-2.243 7.608 7.608 0 0 1 2.588-.305 34.131 34.131 0 0 1 5.025.747c1.18.2 2.747-.384 3.709.606.775.8.243 2.323 1.023 3.117a5.381 5.381 0 0 0 1.379.716 2.847 2.847 0 0 1 1.328 2.251v-.023c0 .051.009.1.012.155a1.177 1.177 0 0 0 .01.192.842.842 0 0 1 0 .162v.052a4.33 4.33 0 0 1-.045.565 18.273 18.273 0 0 1-1.271 3.614 4.907 4.907 0 0 0-.175 3.738c.349.771 1.031 1.358 1.4 2.127a3.246 3.246 0 0 1 .277 1.005v-.023a.543.543 0 0 0 .009.119 4.229 4.229 0 0 1 .785 1.148c.419.928.944 1.138 1.077 1.178h.065a2.712 2.712 0 0 1-1 2.443 4.079 4.079 0 0 1-.251 1.38 4.768 4.768 0 0 0-.185 1.559v.1l.129-.108a47.458 47.458 0 0 0 1.649-4.7 5.833 5.833 0 0 1 .768-1.846s2.3-3.054 5.278-3.169-.284 1.377-.284 1.377 1.194 3.04-2.388 4.159a5.51 5.51 0 0 0-1.047 2.007c-.138.888-1.222 4.044-1.222 4.044s-1.279 4.934-3.993 6.74a2.322 2.322 0 0 1-1.456-.475 2.89 2.89 0 0 1-.873-.75 2.931 2.931 0 0 0 .349.881 4.4 4.4 0 0 1 .909 1.951s-.426.888.312 1.119.456 1.031.456 1.031a2.687 2.687 0 0 1 .887 1.08 38.61 38.61 0 0 0 4.428-3.2c.853-.946 6.737.588 4.548 4.984a13.29 13.29 0 0 1-3.468 4.309c-.239.175-.466.349-.684.532a5.235 5.235 0 0 1-1.318 1.248 20.96 20.96 0 0 0-.812.935.235.235 0 0 1 .033.024l.052.044.035.031a.688.688 0 0 1 .054.054l.031.031c.021.021.04.045.059.068a.355.355 0 0 0 .024.03c.026.033.054.07.08.108a14.045 14.045 0 0 1 1.307 4.379s-.152 1.262-2.141 1.358a2.094 2.094 0 0 1-.552-.073.222.222 0 0 1-.15-.119 9.8 9.8 0 0 0-4.567-.7 8.271 8.271 0 0 1-2.822-.038s-.134-.272-.283-.651l-2.96-.8-.192-.051c-1.4.464-2.71.934-2.71.934s-1.705 1.031-2.073 1.147a7.464 7.464 0 0 1-1.562.026l-.059.328s-1.344.1-1.97.19-4.712-.363-6.251.422c0 0-.073.014-.2.033-.857.131-4.189.449-4.065-2.52a3.682 3.682 0 0 1 2.954-3.792 8.311 8.311 0 0 1 2.166.086c-1.4-.873-3.4-2.154-5.086-3.384-1.852-1.356-2.171-2.326-2.162-2.848a11.129 11.129 0 0 0-.058-1.487c-.678-5.931 5.667-3.552 5.667-3.552zm22.397-13.711zm-13.787 10.784a1.291 1.291 0 0 1-.213-.613 7.4 7.4 0 0 0 .429 1.421 1.092 1.092 0 0 0-.208-.808zm-.284-1.377s-.033-.4-.107-.853c.044.379.084.73.115 1.012l-.007-.159z" transform="translate(-794.127 -460.575)" style="fill:url(#immt4jfpua)"/>
        <path data-name="패스 797" d="M885.777 560.3c.775.791.243 2.3 1.023 3.087a5.419 5.419 0 0 0 1.379.71 3.187 3.187 0 0 1 1.309 3.316 18.394 18.394 0 0 1-1.271 3.583 4.819 4.819 0 0 0-.175 3.7c.349.764 1.031 1.346 1.4 2.108a4.828 4.828 0 0 1-.162 3.7 4.886 4.886 0 0 1-2.487 3.009 15.071 15.071 0 0 1-2.8.429c-1.382.264-2.649 1.12-4.056 1.094a5.926 5.926 0 0 1-3.606-1.777 10.242 10.242 0 0 0-3.349-2.319 21.972 21.972 0 0 0-3.2-.456 3.144 3.144 0 0 1-2.569-1.719 3.459 3.459 0 0 1 .3-2.517 7.235 7.235 0 0 0 .808-2.443c.1-2.37-2.663-4.037-2.822-6.4a4.559 4.559 0 0 1 1.876-3.62c1.087-.9 2.387-1.5 3.555-2.3a15.34 15.34 0 0 1 3.543-2.229 7.694 7.694 0 0 1 2.578-.307 34.6 34.6 0 0 1 5.025.74c1.172.203 2.739-.371 3.701.611z" transform="translate(-842.579 -463.458)" style="fill:#4a4a76"/>
        <g data-name="그룹 757" style="opacity:.1">
            <path data-name="패스 798" d="M45.638 107.503a7.141 7.141 0 0 0-.45 1.792 5.955 5.955 0 0 1 .45-2.7 17.879 17.879 0 0 0 1.272-3.581c.009-.054.014-.11.019-.174a4.176 4.176 0 0 1-.019 1.075 17.506 17.506 0 0 1-1.272 3.588z"/>
            <path data-name="패스 799" d="M24.615 114.365a3.162 3.162 0 0 0 2.569 1.719 21.948 21.948 0 0 1 3.2.456 10.361 10.361 0 0 1 3.351 2.319 6.012 6.012 0 0 0 3.606 1.777c1.407.024 2.672-.833 4.054-1.094a15.079 15.079 0 0 0 2.8-.431 4.859 4.859 0 0 0 2.487-3.007 7.155 7.155 0 0 0 .442-1.773 5.931 5.931 0 0 1-.442 2.682 4.873 4.873 0 0 1-2.487 3.007 15.069 15.069 0 0 1-2.8.431c-1.382.262-2.647 1.12-4.054 1.094a5.922 5.922 0 0 1-3.606-1.777 10.212 10.212 0 0 0-3.351-2.319 21.9 21.9 0 0 0-3.2-.455 3.159 3.159 0 0 1-2.569-1.719 2.46 2.46 0 0 1-.093-1.248 2.378 2.378 0 0 0 .093.339z"/>
            <path data-name="패스 800" d="M25.725 109.394a2.93 2.93 0 0 1-.033.33c-.311-2.073-2.642-3.653-2.792-5.822a3.282 3.282 0 0 1 .028-.656c.329 2.234 2.897 3.866 2.797 6.148z"/>
        </g>
        <path data-name="패스 801" d="M860.564 679.723s.544 3.347-4.234 3.155 2.358-3.4 2.358-3.4z" transform="translate(-811.533 -562.961)" style="fill:#143760"/>
        <path data-name="패스 802" d="m856.85 679.48 1.878.243s.545 3.347-4.236 3.155" transform="translate(-809.664 -562.961)" style="opacity:.1"/>
        <path data-name="패스 803" d="M963.79 678.063a4.408 4.408 0 0 0 5 3.058l.56-1.655-3.859-1.756z" transform="translate(-939.344 -561.5)" style="fill:#143760"/>
        <path data-name="패스 804" d="m968.71 677.71-1.71.349a4.409 4.409 0 0 0 5 3.061" transform="translate(-942.555 -561.5)" style="opacity:.1"/>
        <path data-name="패스 805" d="M860.222 692.282a2.977 2.977 0 0 0 1.206 2.429 2.416 2.416 0 0 0 .585.326l2.473-3.126s-.227-3.065-.185-5.049a4.842 4.842 0 0 1 .185-1.545 8.153 8.153 0 0 0 .265-2.839c-.014-.468-.038-.8-.038-.8l-3.239 3.023-.037.147a43.772 43.772 0 0 0-1.215 7.434z" transform="translate(-816.677 -564.799)" style="fill:#ffb9b9"/>
        <path data-name="사각형 2150" transform="translate(39.537 139.447)" style="fill:#4a4a76" d="M0 0h3.354v2.956H0z"/>
        <path data-name="사각형 2151" transform="translate(31.381 107.262)" style="fill:#4a4a76" d="M0 0h10.697v8.716H0z"/>
        <path data-name="사각형 2152" transform="translate(32.111 104.193)" style="opacity:.1" d="M0 0h9.967v11.786H0z"/>
        <path data-name="패스 806" d="M899.669 636.2s-1.99 3.639 1.222 3.84.539 6.565.539 6.565-3.951 2.618-4.037 2.618-3.267.028-3.353-.028-2.534-3.1-2.534-3.1l-.34-3.525.873-2.792s3.382 1.45 2.443-3.894z" transform="translate(-859.79 -526.97)" style="fill:#ffb9b9"/>
        <path data-name="패스 807" d="M921.742 778.116a10.923 10.923 0 0 1 .058 1.473c0 .524.311 1.478 2.162 2.822 2.9 2.094 6.78 4.377 6.78 4.377l6.981 2.415 2.251-1.047 1.586-.742.424-3.285.372-2.881-5.855-2.843s-4.147-1.511-4.321-1.913-4.775-1.9-4.775-1.9-6.349-2.358-5.663 3.524z" transform="translate(-905.002 -641.109)" style="fill:#ffb9b9"/>
        <path data-name="패스 808" d="m868.76 782.818.5.7.407.56c2.558.174 6.365 6 6.365 6l2.792-2.3a16.6 16.6 0 0 1 6.85-5.2l-.031-.056-.6-1.082-8.7-1.023z" transform="translate(-839.084 -646.299)" style="fill:#4a4a76"/>
        <path data-name="패스 809" d="m868.93 782.818.5.7c1.192-.072 3.278-.293 3.278-.293s1.023.627 1.571.4 7.417-.113 8.241-.653c.641-.421 2.4-.274 3.295-.454l-.6-1.082-8.7-1.023z" transform="translate(-839.254 -646.299)" style="opacity:.1"/>
        <path data-name="패스 810" d="m868.135 660.46.2 1.874a6.523 6.523 0 0 0 .873 5.07s-.255 1.745.058 2.206a7.072 7.072 0 0 1 .454 2.075s.03 1.108.285 1.365.2.539.229 1.307c.023.613-1.171 1.988-1.782 2.705a5.392 5.392 0 0 0-.323.393c-.255.37-.4 2.047.627 2.018l.258-.01c.234-.012.524-.031.818-.054 1.171-.094 2.618-.248 2.618-.248a4.124 4.124 0 0 0 .421.218 1.623 1.623 0 0 0 1.143.175c.539-.227 7.417-.113 8.241-.653.614-.4 2.257-.284 3.182-.435.316-.051.548-.133.627-.277.314-.567-.852-1.421-.852-1.421s.284-.8-.456-1.023-.312-1.108-.312-1.108a4.337 4.337 0 0 0-.909-1.934c-.909-1.365-.511-5.286-.511-5.286 2.1-2.813.768-5.061.768-5.061l1.705-6.026-.995-.909-4.712.054.366 1.963c.511 3.665-4.463 5.236-4.463 5.236-4.632.141-3.665-4.946-3.665-4.946l.649-2.361a18.529 18.529 0 0 0-3.578-.679c-1.161-.136-1.654.031-1.853.243a5.277 5.277 0 0 1-.9.777 2.584 2.584 0 0 0-.574.543l1.571 2.792z" transform="translate(-839 -542.477)" style="fill:#143760"/>
        <path data-name="패스 811" d="m811.653 776.826 3.738 4.525 1.087 1.316 4.089-1.733a15.279 15.279 0 0 1 3.438-3.526 13.358 13.358 0 0 0 3.468-4.269c2.189-4.363-3.695-5.876-4.548-4.939a67.6 67.6 0 0 1-6.253 4.349 10.218 10.218 0 0 0-3.4 2.532c-.921.927-1.619 1.745-1.619 1.745z" transform="translate(-771.399 -636.001)" style="fill:#ffb9b9"/>
        <circle data-name="타원 132" cx="5.386" cy="5.386" transform="translate(31.851 100.242)" style="opacity:.1" r="5.386"/>
        <circle data-name="타원 133" cx="5.386" cy="5.386" transform="translate(31.851 100.128)" style="fill:#ffb9b9" r="5.386"/>
        <path data-name="패스 812" d="M864.041 716.628c.323.236-.3-.4-.3-.4l1.251.2s-.227-3.065-.185-5.049c-1.67 1.318-2.943 5.049-2.943 5.049-.516 1.465 1.773-.289 2.177.2z" transform="translate(-817.185 -589.299)" style="opacity:.1"/>
        <path data-name="패스 813" d="M811.1 670.784s1.278-3.752 2.955-5.061a46.625 46.625 0 0 0 1.649-4.661 5.731 5.731 0 0 1 .768-1.829s2.3-3.03 5.286-3.141-.284 1.363-.284 1.363 1.194 3.012-2.387 4.122a5.442 5.442 0 0 0-1.047 1.99c-.138.881-1.222 4.014-1.222 4.014s-1.279 4.887-3.993 6.679c-.008-.008-3.006.14-1.725-3.476z" transform="translate(-766.302 -543.672)" style="fill:#ffb9b9"/>
        <path data-name="패스 814" d="M933.162 766.817c.023.613-1.171 1.988-1.782 2.705a9.981 9.981 0 0 0 .913 1.705l.016.023.457.618c.283.391.585.819.848 1.187.391.553.689.981.689.981s2.36 6.225 2.984 4.634a4.395 4.395 0 0 0 .295-1.764 10.651 10.651 0 0 0-1.489-4.517c-.1-.188-.2-.373-.29-.55-.286-.552-.524-1.047-.74-1.49a23.226 23.226 0 0 1-.988-2.365s-.942-1.935-.913-1.167z" transform="translate(-901.923 -634.929)" style="opacity:.1"/>
        <path data-name="패스 815" d="M932.754 679.8c.086 1.007.246 2.466.246 2.466v3.665c0 .284.74 3.78.74 3.78l.524 1.876a5.9 5.9 0 0 0 .754 2.984c.826 1.335 1.363 3.126 2.1 4.12s1.99 2.792 1.99 2.792 2.37 6.218 2.995 4.627.284-3.525-1.194-6.283a30.869 30.869 0 0 1-2.019-4.4 19.487 19.487 0 0 1-1.124-3.1c-.077-.742-.581-5.023-.581-5.023a16.846 16.846 0 0 1-.763-5.833c0-.115-.246-.229-.236-.349.316-3.183-3.463-2.26-3.463-2.26a4.535 4.535 0 0 0 .031.938z" transform="translate(-906.972 -562.37)" style="fill:#ffb9b9"/>
        <path data-name="패스 816" d="M911.255 796.943c.654 1.005-7.611 1.194-6.36 1.307a10.593 10.593 0 0 1 1.326.279c2.342.592 6.546 1.909 6.546 1.909l.56.15 4.014 1.072-.295-2.15-.244-1.771-3.042-1.506s-.394-.175-.9-.419a17.189 17.189 0 0 1-2.059-1.059c-.058-.141-2.984-2.075-2.984-2.075-.824-.766-7.276-3.723-7.276-3.723-7.735-1.685 10.059 6.984 10.714 7.986z" transform="translate(-875.958 -653.175)" style="opacity:.1"/>
        <path data-name="패스 817" d="M923.844 797.942c.653 1.005 6.82 3.141 8.072 3.258a10.832 10.832 0 0 1 1.326.278c1.337.339 3.281.913 4.712 1.344l1.586-.742.424-3.284-.07-.031a17.464 17.464 0 0 1-2.059-1.059c-.058-.143-5.173-.569-5.173-.569-.824-.768-5.087-5.236-5.087-5.236 2.525 5.092-4.386 5.036-3.731 6.041z" transform="translate(-902.978 -655.783)" style="opacity:.1"/>
        <path data-name="패스 818" d="M899.858 796.049c.653 1 6.82 3.141 8.072 3.258a10.487 10.487 0 0 1 1.326.277c.269.068.562.145.873.23 2.38.648 5.676 1.679 5.676 1.679l.56.15.635.174 2.958.785.424.113-.244-1.78-.051-.372-.031-.227-.213-1.543-3.047-1.5-.524-.246-.367-.174a17.1 17.1 0 0 1-2.059-1.061c-.058-.141-2.984-2.073-2.984-2.073-.824-.768-7.276-3.724-7.276-3.724-7.746-1.685-4.386 5.029-3.728 6.034z" transform="translate(-878.991 -654.004)" style="fill:#ffb9b9"/>
        <path data-name="패스 819" d="M840.78 839.326a5.024 5.024 0 0 0 .4 1.539c.148.375.283.644.283.644a8.622 8.622 0 0 0 2.822.037 10 10 0 0 1 4.567.7c.016.052.073.089.15.117a2.14 2.14 0 0 0 .552.072c1.99-.094 2.141-1.344 2.141-1.344a13.885 13.885 0 0 0-1.307-4.34 1.467 1.467 0 0 0-.66-.55 2.172 2.172 0 0 0-1.745.248 2.685 2.685 0 0 1-.644.3c-1.5.567-5.023 1.529-6.058 1.845l-.155.047c-.265.092-.353.352-.346.685z" transform="translate(-800.218 -692.265)" style="fill:#4a4a76"/>
        <path data-name="패스 820" d="M843.2 839.964s.78 1.96-.759 2.41a2.14 2.14 0 0 0 .551.072c1.99-.094 2.141-1.344 2.141-1.344a13.886 13.886 0 0 0-1.307-4.34c-.871-1.271-2.407-.3-2.407-.3a2.682 2.682 0 0 1-.644.3s2.125.284 2.425 3.202z" transform="translate(-793.662 -692.274)" style="opacity:.1"/>
        <path data-name="패스 821" d="M930.658 761.209s-5.115-.951-5.187-.653 5.187.653 5.187.653z" transform="translate(-893.962 -629.862)" style="opacity:.1"/>
        <path data-name="패스 822" d="M937.862 767.147s-3.084-.625-3.112-.349 3.112.349 3.112.349z" transform="translate(-902.786 -635.004)" style="opacity:.1"/>
        <path data-name="패스 823" d="M887.639 784s-6.039 1.065-7.005 1.277a27.673 27.673 0 0 1-4.264 0s4.236-.056 4.712-.4 6.557-.877 6.557-.877z" transform="translate(-842.375 -649.262)" style="opacity:.1"/>
        <path data-name="패스 824" d="M927.8 803.314s-2.094-.241-1.92 0 1.92 0 1.92 0z" transform="translate(-891.175 -665.117)" style="opacity:.1"/>
        <path data-name="패스 825" d="M922.3 816s-1.791-1.606-1.8-1.379 1.8 1.379 1.8 1.379z" transform="translate(-884.742 -674.525)" style="opacity:.1"/>
        <path data-name="패스 826" d="m841.7 788.153 3.738 4.525a9.087 9.087 0 0 1 1.4-.389c1.534-.255 5.969-1.62 6.792-3.951 0 0-17.47 4.712-16.873 4.236s21.021-13.728 13.405-10.374a49.881 49.881 0 0 0-6.841 4.209c-.921.925-1.621 1.744-1.621 1.744z" transform="translate(-801.447 -647.327)" style="opacity:.1"/>
        <path data-name="패스 827" d="M901.034 837.333a11.756 11.756 0 0 0 2.018 0c.368-.113 2.075-1.138 2.075-1.138s1.108-.394 2.38-.817a24.19 24.19 0 0 1 3.56-1l.159-.077-.244-1.771-3.042-1.5s-.394-.175-.9-.417l-1.009.674a13.826 13.826 0 0 1-3.068 1.677c-.625.049-2.147.318-2.567.363a.406.406 0 0 1-.1 0c-.085-.027.738 4.006.738 4.006z" transform="translate(-870.137 -687.738)" style="opacity:.1"/>
        <path data-name="패스 828" d="M852.07 834.358c2.38.647 5.675 1.679 5.675 1.679l.56.15.635.175c.958-.312 1.937-.611 2.557-.75a3.441 3.441 0 0 1 .482-.082l.1-.045a23.154 23.154 0 0 1 4.363-1.63 15.516 15.516 0 0 0 4-1.367 2.172 2.172 0 0 0-1.745.248 2.682 2.682 0 0 1-.644.3c-1.5.567-5.023 1.529-6.058 1.845l-.213-1.543-3.042-1.5-.524-.246-1.26.843a13.772 13.772 0 0 1-3.082 1.672c-.401.031-1.188.157-1.804.251z" transform="translate(-820.935 -688.547)" style="opacity:.1"/>
        <path data-name="패스 829" d="M841.715 781.9s-6.85 3.49-8.185 5.571l-4.632 3.1a13.909 13.909 0 0 1-3.077 1.677c-.717.061-2.586.4-2.672.37s.738 4.014.738 4.014a11.78 11.78 0 0 0 2.019 0 23.426 23.426 0 0 0 2.073-1.138 54.067 54.067 0 0 1 5.934-1.818 23.848 23.848 0 0 1 4.463-1.677c1.536-.256 5.969-1.62 6.793-3.949a14.913 14.913 0 0 1 1.592-1.763c.597-.487 2.572-7.745-5.046-4.387z" transform="translate(-792.884 -646.797)" style="fill:#ffb9b9"/>
        <path data-name="패스 830" d="M957.53 846.387c.126-.019.2-.035.2-.035 1.534-.777 5.627-.323 6.251-.417s1.97-.19 1.97-.19.7-3.731.248-3.864a1.721 1.721 0 0 1-.74-.456c-.738-.454-4.85-.586-5.381-.606a.872.872 0 0 1-.5-.141.35.35 0 0 1-.126-.143 6.25 6.25 0 0 0-3.03-.4 3.663 3.663 0 0 0-2.956 3.752c-.135 2.945 3.205 2.627 4.064 2.5z" transform="translate(-934.54 -695.574)" style="fill:#4a4a76"/>
        <path data-name="패스 831" d="M996.339 846.387c-2.714-.752-2.379-2.555-2.379-2.555a3.946 3.946 0 0 1 4.426-3.154.35.35 0 0 1-.126-.143 6.25 6.25 0 0 0-3.03-.4 3.664 3.664 0 0 0-2.956 3.752c-.134 2.945 3.206 2.627 4.065 2.5z" transform="translate(-973.349 -695.574)" style="opacity:.1"/>
        <path data-name="패스 832" d="m967.044 679.807 3.665 1.674c0-.115-.246-.229-.236-.349.316-3.183-3.463-2.26-3.463-2.26a4.532 4.532 0 0 0 .034.935z" transform="translate(-941.261 -562.356)" style="opacity:.1"/>
        <path data-name="패스 833" d="m901.493 652.666-.511-.086-2.332 2.757 5.429 2.67.284-2.586-1.279-1.506z" transform="translate(-874.205 -538.774)" style="fill:#143760"/>
        <path data-name="패스 834" d="m860.27 684.832.037.08 3.278-2.443c-.014-.468-.038-.8-.038-.8l-3.239 3.025s-.016.044-.038.138z" transform="translate(-815.51 -564.769)" style="opacity:.1"/>
        <path data-name="패스 835" d="M856.324 664.42h.967a4.538 4.538 0 0 1 1.421 1.695c.483 1.063 1.108 1.176 1.108 1.176l-4.234 3.164-.8-1.82z" transform="translate(-810.789 -550.529)" style="fill:#143760"/>
        <path data-name="패스 836" d="M901.213 574.292a3.284 3.284 0 0 1 .307 1.145 1.124 1.124 0 0 1-.5 1.017 1.349 1.349 0 0 1-.538.141 10.777 10.777 0 0 1-2.761-.326 5.878 5.878 0 0 0-3.349.3 10.317 10.317 0 0 0-1.583 1.047 4.493 4.493 0 0 1-1.688.848 1.841 1.841 0 0 1-1.745-.489 2.214 2.214 0 0 1-.435-1.538 5.662 5.662 0 0 1 1.813-3.887 7.473 7.473 0 0 1 3.915-1.864 4.253 4.253 0 0 1 3.335.674 8.776 8.776 0 0 1 2.463 2.283 4.921 4.921 0 0 0 .64.791 1.2 1.2 0 0 0 .925.349" transform="translate(-858.939 -473.067)" style="opacity:.1"/>
        <path data-name="패스 837" d="M901.213 572.989a3.274 3.274 0 0 1 .307 1.145 1.128 1.128 0 0 1-.5 1.017 1.348 1.348 0 0 1-.538.141 10.856 10.856 0 0 1-2.761-.326 5.718 5.718 0 0 0-3.349.3 10.18 10.18 0 0 0-1.583 1.047 4.493 4.493 0 0 1-1.688.848 1.837 1.837 0 0 1-1.745-.49 2.209 2.209 0 0 1-.435-1.538 5.661 5.661 0 0 1 1.813-3.885 7.461 7.461 0 0 1 3.915-1.864 4.253 4.253 0 0 1 3.335.67 8.726 8.726 0 0 1 2.463 2.283 4.918 4.918 0 0 0 .64.791 1.2 1.2 0 0 0 .925.349" transform="translate(-858.939 -471.99)" style="fill:#4a4a76"/>
        <circle data-name="타원 134" cx=".12" cy=".12" transform="translate(47.324 145.424)" style="fill:#fff" r=".12"/>
        <circle data-name="타원 135" cx=".12" cy=".12" transform="translate(47.807 149.019)" style="fill:#fff" r=".12"/>
        <circle data-name="타원 136" cx=".12" cy=".12" transform="translate(45.846 145.544)" style="fill:#fff" r=".12"/>
        <circle data-name="타원 137" cx=".12" cy=".12" transform="translate(46.613 149.019)" style="fill:#fff" r=".12"/>
        <circle data-name="타원 138" cx=".12" cy=".12" transform="translate(46.613 145.544)" style="fill:#fff" r=".12"/>
        <circle data-name="타원 139" cx=".12" cy=".12" transform="translate(47.324 149.019)" style="fill:#fff" r=".12"/>
        <circle data-name="타원 140" cx=".12" cy=".12" transform="translate(28.461 145.784)" style="fill:#fff" r=".12"/>
        <circle data-name="타원 141" cx=".12" cy=".12" transform="translate(26.264 145.904)" style="fill:#fff" r=".12"/>
        <circle data-name="타원 142" cx=".12" cy=".12" transform="translate(24.065 145.904)" style="fill:#fff" r=".12"/>
        <circle data-name="타원 143" cx=".12" cy=".12" transform="translate(22.587 149.51)" style="fill:#fff" r=".12"/>
        <circle data-name="타원 144" cx=".12" cy=".12" transform="translate(27.325 145.904)" style="fill:#fff" r=".12"/>
        <circle data-name="타원 145" cx=".12" cy=".12" transform="translate(25.145 145.904)" style="fill:#fff" r=".12"/>
        <circle data-name="타원 146" cx=".12" cy=".12" transform="translate(23.137 146.026)" style="fill:#fff" r=".12"/>
        <circle data-name="타원 147" cx=".12" cy=".12" transform="translate(24.501 149.63)" style="fill:#fff" r=".12"/>
        <circle data-name="타원 148" cx=".12" cy=".12" transform="translate(23.496 149.63)" style="fill:#fff" r=".12"/>
        <path data-name="패스 838" d="M966.475 849.37s-1.531 1.855-.318 3.6" transform="translate(-936.799 -703.223)" style="opacity:.1"/>
        <path data-name="패스 839" d="M886.755 851.31s1.094 1.375.241 2.534" transform="translate(-843.869 -704.825)" style="opacity:.1"/>
        <path data-name="패스 840" d="M915.691 683.79s-1.92 1.5-1.668 2.178a5.826 5.826 0 0 1 1.668-2.178z" transform="translate(-876.994 -566.519)" style="opacity:.1"/>
        <path data-name="패스 841" d="M925.8 683.79s1.92 1.5 1.667 2.178a5.707 5.707 0 0 0-1.667-2.178z" transform="translate(-890.85 -566.519)" style="opacity:.1"/>
        <path data-name="패스 842" d="M962.6 727.83z" transform="translate(-932.385 -602.895)" style="fill:#f57979"/>
        <path data-name="패스 843" d="M961.523 701.741a.626.626 0 0 0 .023.037.39.39 0 0 0 .175-.187c.51-1.009-.225-5.321-.225-5.321l-.5.321-.138.087a6.449 6.449 0 0 0 .665 5.063z" transform="translate(-931.33 -576.824)" style="fill:#143760"/>
        <path data-name="패스 844" d="M912.79 724.5s.815 1.326 1.346 1.326c0 0-1.259-.986-1.346-1.326z" transform="translate(-875.227 -600.146)" style="opacity:.1"/>
        <path data-name="패스 845" d="M931.176 724.5s-.815 1.326-1.346 1.326c0 0 1.25-.986 1.346-1.326z" transform="translate(-895.241 -600.146)" style="opacity:.1"/>
        <g data-name="그룹 758" style="opacity:.1">
            <path data-name="패스 846" d="M42.575 101.097a1.791 1.791 0 0 0 .175.091l.485.295a1.026 1.026 0 0 1-.578-.11 1.772 1.772 0 0 0-.082-.276z"/>
            <path data-name="패스 847" d="m42.447 100.998.117.072.01.028a1.335 1.335 0 0 1-.117-.077z"/>
            <path data-name="패스 848" d="M30.145 103.14a2.052 2.052 0 0 0 .436 1.318 1.848 1.848 0 0 0 1.745.49 4.484 4.484 0 0 0 1.688-.85 9.818 9.818 0 0 1 1.583-1.047 5.733 5.733 0 0 1 3.349-.3 10.936 10.936 0 0 0 2.761.328 1.322 1.322 0 0 0 .538-.143 1.082 1.082 0 0 0 .5-.873v.077a1.128 1.128 0 0 1-.5 1.017 1.351 1.351 0 0 1-.538.141 10.856 10.856 0 0 1-2.761-.326 5.719 5.719 0 0 0-3.349.3 10.188 10.188 0 0 0-1.583 1.047 4.493 4.493 0 0 1-1.688.848 1.838 1.838 0 0 1-1.745-.49 2.2 2.2 0 0 1-.436-1.538z"/>
        </g>
        <path data-name="패스 849" d="M64.243 52.739v.349c0 .148 0 .3.012.445s0 .246.012.368q.04.932.12 1.862v.019c.014.175.03.332.047.5.01.108.023.216.035.326s.019.192.031.288v.066c.028.239.058.476.091.714s.061.447.1.67c.014.1.03.2.045.295.023.143.045.284.07.428l.054.307c.084.468.175.934.276 1.4l.07.323c.033.15.068.3.1.454.059.255.12.51.187.763.037.147.077.295.117.443.028.108.058.215.087.321.07.255.141.508.218.763.03.1.059.2.091.3.054.175.11.349.175.532s.127.389.192.583.119.349.175.524l.117.325c.04.109.091.25.138.373q.187.5.387.995a27.363 27.363 0 0 0 .362.862c.082.19.175.382.253.572.068.154.138.305.209.457q.239.513.494 1.023c.073.147.147.293.223.44.162.318.332.635.5.949l.1.183c.059.106.119.215.175.321l.052.091a35.195 35.195 0 0 0 .59.996l.3.489c.073.119.148.236.225.349q.079.126.162.251.174.277.366.55c.25.372.508.738.773 1.1l-.082.07 4.416 5.222 10.338 12.275 2.478 2.944a23.7 23.7 0 0 0-5.119 6.649c-3.435 6.758-6.377 12.883-8.693 16.405a34.909 34.909 0 0 1 14.279-6.161c.4-.08.806-.159 1.222-.23q1.208-.209 2.34-.5 1.075-.267 2.094-.593c.155-.049.311-.1.464-.154a33.177 33.177 0 0 0 4.721-2.005l.407.482 1.813 2.155 12.477 14.815 4.822 5.726 4.335 5.162.188.213.037-.031.436-.368.4-.337 1.159-.976 4.843-4.086 2.412-2.031 1.628-1.37 2.12-1.782.349-.29 1.335-1.126 1.286-1.08 5.073-4.272 2.548-2.134.916-.771.421-.349 2.187-1.843 3.731-3.141.485-.408.047-.04 1.555-1.309 1.941-1.653 2.164-1.822.379-.319 1.075-.908 1.463-1.234 4.079-3.435.642-.541.106-.089 2.532-2.133 1.635-1.379.585-.49.3-.255.986-.829 3.007-2.524 8.541-7.192c.15-.126.3-.253.445-.38l.087-.077.033-.028c.152-.133.3-.265.449-.4.1-.091.2-.175.3-.274l.075-.07.086-.079.215-.2.023-.023.028-.026c.126-.117.248-.236.37-.349l.175-.164.122-.12c.066-.065.133-.131.2-.2l.014-.014c.206-.2.407-.412.607-.62l.255-.269c.089-.094.175-.19.265-.286l.14-.152c.075-.08.148-.162.22-.243.042-.044.082-.089.122-.134l.2-.23c.12-.138.241-.277.36-.417.08-.092.159-.185.237-.279l.058-.068q.175-.2.335-.408l.052-.065c.094-.115.185-.23.276-.349.052-.063.1-.127.15-.19s.127-.162.188-.244.1-.129.15-.2a.45.45 0 0 0 .035-.045c.1-.129.2-.26.293-.391l.047-.063.061-.084.1-.138.052-.072.084-.115.106-.152.052-.072.075-.108c.082-.115.162-.232.243-.349l.174-.246.3-.449.024-.037c.106-.162.211-.325.314-.489l.031-.049.056-.089.3-.489c.073-.12.147-.241.218-.363l.077-.127.2-.365c.03-.052.061-.1.091-.159l.059-.1.066-.117.058-.1c.01-.023.023-.044.035-.065.066-.119.131-.237.2-.349l.014-.024c.058-.1.113-.211.175-.318.077-.145.154-.29.229-.436l.175-.349c.044-.086.086-.175.127-.257.03-.058.058-.115.086-.175s.049-.1.072-.147c0-.016.016-.031.023-.047l.023-.047.031-.066.14-.3c.009-.014.014-.03.021-.044.038-.082.077-.164.113-.246l.066-.145.157-.349.063-.141a5.25 5.25 0 0 1 .051-.117l.161-.377q.061-.14.115-.277a37.33 37.33 0 0 0 .334-.832l.01-.03c0-.014.012-.026.016-.038l.016-.038.021-.058c.017-.045.035-.089.051-.134s.033-.084.047-.126c.051-.131.1-.262.145-.393.072-.2.141-.391.209-.588a.392.392 0 0 1 .014-.042c.033-.094.065-.187.1-.279q.236-.7.442-1.4.115-.393.225-.785l.106-.394c.068-.264.136-.524.2-.791l.094-.4.175-.775.016-.075c.024-.115.049-.23.072-.349l.079-.4c.019-.1.04-.206.058-.311q.052-.279.1-.56a30.424 30.424 0 0 0 .174-1.132c.019-.129.035-.257.052-.384a.174.174 0 0 1 .01-.072c.031-.251.061-.5.089-.757.014-.134.03-.269.042-.4l.038-.4q.094-1.047.133-2.084c0-.147.012-.293.016-.438q.016-.569.016-1.136v-.754c0-.251-.01-.48-.019-.719v-.06c0-.243-.019-.485-.033-.728s-.03-.5-.049-.752v-.031c-.017-.241-.038-.482-.061-.721s-.047-.5-.075-.749c-.026-.23-.054-.461-.084-.7a.212.212 0 0 0-.012-.086q-.047-.36-.1-.717a28.955 28.955 0 0 0-.315-1.804 36.901 36.901 0 0 0-.227-1.087l-.07-.307c-.025-.107-.049-.213-.077-.319-.054-.229-.11-.456-.175-.682-.021-.084-.042-.175-.065-.25-.051-.192-.1-.382-.157-.574s-.112-.389-.175-.585-.108-.36-.175-.539c-.028-.1-.059-.2-.092-.293v-.024a10.356 10.356 0 0 0-.175-.515 2.811 2.811 0 0 1-.04-.12c-.072-.208-.143-.414-.216-.62-.084-.232-.175-.464-.257-.7a26.295 26.295 0 0 0-.138-.358c-.024-.065-.049-.127-.075-.192a6.126 6.126 0 0 0-.175-.412l-.129-.312q-.328-.787-.7-1.562-.654-1.459-1.449-2.855c-.082-.143-.164-.286-.248-.429s-.175-.286-.253-.428-.175-.284-.26-.426q-.654-1.047-1.38-2.094c-.084-.119-.175-.237-.253-.349l-.244-.335q-.524-.712-1.086-1.407c-.092-.115-.185-.229-.279-.349s-.188-.227-.283-.349q-.349-.414-.7-.815c-.15-.175-.3-.335-.452-.5a68.57 68.57 0 0 0-.99-1.047 27.416 27.416 0 0 0-.38-.382.728.728 0 0 0-.065-.063 22.967 22.967 0 0 1-.349-.349l-.152-.147-.293-.279-.175-.175-.295-.269q-.215-.2-.435-.387l-.264-.23-.323-.276-.194-.162q-.464-.391-.937-.761c-.058-.045-.115-.091-.175-.134-.12-.1-.241-.188-.363-.279l-.274-.208c-.3-.222-.6-.44-.9-.651l-.293-.2-.462-.316-.461-.305-.332-.211c-.08-.054-.162-.1-.244-.155l-.2-.124c-.147-.092-.293-.175-.442-.269-.07-.042-.14-.086-.209-.126-.159-.1-.318-.19-.478-.281l-.279-.159q-.524-.3-1.058-.578l-.424-.22-.339-.175q-.8-.4-1.614-.763l-.361-.159c-.162-.072-.326-.141-.492-.211l-.558-.229a6.971 6.971 0 0 0-.468-.175l-.026-.01-.349-.134-.613-.225c-.2-.072-.4-.141-.6-.209l-.045-.016c-.141-.047-.283-.1-.426-.141q-.115-.038-.23-.073c-.175-.058-.349-.112-.524-.175l-.133-.04c-.194-.059-.387-.115-.583-.175q-.077-.023-.152-.042a21.648 21.648 0 0 0-.482-.134l-.154-.04-.44-.113q-.8-.2-1.607-.37c-.2-.044-.41-.086-.616-.124h-.026q-.295-.058-.592-.11l-.14-.024a26.755 26.755 0 0 0-.641-.106l-.1-.016q-.262-.042-.524-.079l-.154-.021c-.209-.03-.419-.058-.628-.082h-.03l-.616-.07-.175-.017-.524-.051-.175-.016-.6-.045h-.047c-.216-.016-.435-.028-.651-.04s-.4-.019-.6-.026l-.276-.01c-.2 0-.391-.012-.586-.014h-1.321c-.208 0-.415 0-.621.014-.349.01-.7.024-1.047.045L158 14.1q-.48.028-.958.073a1.454 1.454 0 0 0-.246.021c-.367.033-.735.073-1.1.119q-.649.075-1.295.175c-.2.03-.407.063-.611.1s-.41.07-.614.108q-.688.129-1.374.279l-.414.092-.365.087-.349.087c-.2.049-.389.1-.583.15q-.56.148-1.115.314c-.642.192-1.279.4-1.92.623-.175.063-.365.129-.546.2l-.054.019-.539.2c-.175.068-.349.136-.524.208l-.175.072-.51.232c-.209.089-.417.175-.625.271l-.536.243c-.194.089-.387.175-.579.272-.145.068-.29.14-.435.213-.2.1-.4.2-.593.3l-.257.133-.377.2-.056.03a40.729 40.729 0 0 0-4.429 2.775l-.393.277c-.248.175-.492.368-.736.557l-.236.175q-.574.447-1.133.92l-.084.07a35.578 35.578 0 0 0-.386-.391q-.335-.339-.681-.667c-.12-.113-.241-.229-.363-.349s-.211-.2-.318-.293a24.746 24.746 0 0 0-.417-.375c-.108-.1-.218-.194-.33-.29-.138-.12-.277-.241-.417-.349l-.379-.316-.363-.3q-.524-.428-1.068-.831c-.126-.1-.251-.188-.379-.281-.066-.051-.134-.1-.2-.148l-.321-.23a20.18 20.18 0 0 0-.4-.279l-.382-.26-.373-.251a41.94 41.94 0 0 0-2.234-1.372c-.147-.084-.295-.175-.445-.25-.415-.23-.836-.452-1.258-.667l-.274-.138-.272-.134c-.152-.075-.305-.148-.457-.22s-.305-.145-.459-.215l-.463-.208c-.154-.07-.309-.136-.464-.2s-.337-.145-.506-.213l-.428-.175a7.431 7.431 0 0 0-.469-.175l-.457-.175h-.016a44.535 44.535 0 0 0-.949-.339l-.487-.164-.469-.15c-.159-.051-.319-.1-.48-.148l-.481-.142q-.483-.14-.97-.267l-.485-.124q-.487-.122-.977-.232c-.326-.073-.653-.143-.981-.206s-.656-.126-.986-.183l-.5-.084a42.15 42.15 0 0 0-1.115-.162l-.564-.066q-.838-.1-1.679-.162a42.36 42.36 0 0 0-1.124-.07q-1.157-.058-2.316-.047h-.539c-.152 0-.3 0-.454.012l-.386.014c-.161 0-.321.014-.483.023s-.29.016-.435.026l-.438.03c-.145.009-.29.021-.435.035l-.318.028a20.46 20.46 0 0 0-.55.054.859.859 0 0 0-.133.016c-.162.016-.325.035-.485.056l-.248.031c-.157.019-.312.04-.469.063l-.349.051c-.194.028-.389.058-.583.091s-.375.061-.562.1a48.79 48.79 0 0 0-.646.12c-.122.024-.243.047-.363.073-.159.031-.316.065-.475.1l-.305.068c-.105.024-.155.033-.232.052l-.675.162-.113.028-.281.072-.613.164-.7.2h-.021l-.489.148-.649.213q-.543.175-1.08.372c-.112.038-.223.08-.333.122q-1.5.555-2.967 1.237c-.115.052-.23.108-.349.162q-1.253.6-2.475 1.283l-.283.161c-.155.087-.307.175-.461.267q-.4.241-.8.489l-.333.209c-.038.024-.077.047-.113.073q-.935.6-1.845 1.253h-.012c-.113.082-.225.162-.337.246-.157.115-.312.23-.466.349l-.25.19-.143.112q-.361.281-.719.572l-.274.232-.276.227c-.143.122-.286.243-.428.366q-.363.314-.717.635l-.283.258-.049.045-.112.1a36.693 36.693 0 0 0-1.29 1.258c-.082.082-.164.175-.244.25q-.288.3-.569.6l-.2.218c-.424.462-.836.935-1.232 1.414a15.817 15.817 0 0 0-.481.586c-.061.08-.127.157-.188.237a.439.439 0 0 0-.045.058c-.073.091-.143.175-.213.272a30.14 30.14 0 0 0-.757 1.013c-.108.148-.215.3-.318.447-.126.175-.251.361-.375.543-.246.363-.485.728-.721 1.1l-.349.557c-.117.187-.225.373-.335.56s-.22.377-.326.565-.2.349-.29.524q-.459.834-.873 1.689a7.142 7.142 0 0 0-.134.279c-.061.126-.12.25-.175.375l-.023.049c-.077.175-.152.332-.227.5a51.617 51.617 0 0 0-.465 1.078q-.312.752-.592 1.517a21.532 21.532 0 0 0-.235.658q-.084.236-.162.476a35.827 35.827 0 0 0-.209.639q-.164.524-.316 1.047a11.51 11.51 0 0 0-.075.265c-.042.15-.084.3-.122.449-.056.206-.11.414-.161.621s-.1.4-.147.6v.033c-.031.138-.063.274-.093.412l-.058.264c-.052.243-.1.487-.15.731a37.987 37.987 0 0 0-.218 1.202c-.026.157-.052.312-.075.469a.875.875 0 0 1-.017.115c-.023.15-.045.3-.066.452 0 .051-.016.1-.021.155q-.037.262-.068.524c-.03.241-.056.482-.082.723a39.601 39.601 0 0 0-.19 2.659c0 .133-.01.265-.014.4a37.152 37.152 0 0 0-.019 1.769z" transform="translate(-14.399 -11.391)" style="fill:#143760"/>
        <path data-name="패스 850" d="M786.67 634.991c.892.063 2.018-1.107 3.349-3.141a18.528 18.528 0 0 0-3.349 3.141z" transform="translate(-729.1 -523.638)" style="fill:#143760"/>
        <path data-name="패스 851" d="M64.243 52.739v.349c0 .148 0 .3.012.445s0 .246.012.368q.04.932.12 1.862v.019c.014.175.03.332.047.5.01.108.023.216.035.326s.019.192.031.288v.066c.028.239.058.476.091.714s.061.447.1.67c.014.1.03.2.045.295.023.143.045.284.07.428l.054.307c.084.468.175.934.276 1.4l.07.323c.033.15.068.3.1.454.059.255.12.51.187.763.037.147.077.295.117.443.028.108.058.215.087.321.07.255.141.508.218.763.03.1.059.2.091.3.054.175.11.349.175.532s.127.389.192.583.119.349.175.524l.117.325c.04.109.091.25.138.373q.187.5.387.995a27.363 27.363 0 0 0 .362.862c.082.19.175.382.253.572.068.154.138.305.209.457q.239.513.494 1.023c.073.147.147.293.223.44.162.318.332.635.5.949l.1.183c.059.106.119.215.175.321l.052.091a35.195 35.195 0 0 0 .59.996l.3.489c.073.119.148.236.225.349q.079.126.162.251.174.277.366.55c.25.372.508.738.773 1.1l-.082.07 4.416 5.222 10.338 12.275 2.478 2.944a23.7 23.7 0 0 0-5.119 6.649c-3.435 6.758-6.377 12.883-8.693 16.405a34.909 34.909 0 0 1 14.279-6.161c.4-.08.806-.159 1.222-.23q1.208-.209 2.34-.5 1.075-.267 2.094-.593c.155-.049.311-.1.464-.154a33.177 33.177 0 0 0 4.721-2.005l.407.482 1.813 2.155 12.477 14.815 4.822 5.726 4.335 5.162.188.213.037-.031.436-.368.4-.337 1.159-.976 4.843-4.086 2.412-2.031 1.628-1.37 2.12-1.782.349-.29 1.335-1.126 1.286-1.08 5.073-4.272 2.548-2.134.916-.771.421-.349 2.187-1.843 3.731-3.141.485-.408.047-.04 1.555-1.309 1.941-1.653 2.164-1.822.379-.319 1.075-.908 1.463-1.234 4.079-3.435.642-.541.106-.089 2.532-2.133 1.635-1.379.585-.49.3-.255.986-.829 3.007-2.524 8.541-7.192c.15-.126.3-.253.445-.38l.087-.077.033-.028c.152-.133.3-.265.449-.4.1-.091.2-.175.3-.274l.075-.07.086-.079.215-.2.023-.023.028-.026c.126-.117.248-.236.37-.349l.175-.164.122-.12.19-.192.014-.014c.206-.2.407-.412.607-.62l.255-.269c.089-.094.174-.19.265-.286l.14-.152c.075-.08.148-.162.22-.243.042-.044.082-.089.122-.134l.2-.23c.12-.138.241-.277.36-.417.08-.092.159-.185.237-.279l.058-.068q.175-.2.335-.408l.052-.065c.094-.115.185-.23.276-.349.052-.063.1-.127.15-.19s.127-.162.188-.244.1-.129.15-.2a.446.446 0 0 0 .035-.045c.1-.129.2-.26.293-.391l.047-.063.061-.084.1-.138.052-.072.084-.115.106-.152.052-.072.075-.108c.082-.115.162-.232.243-.349l.175-.246.3-.449.024-.037c.106-.162.211-.325.314-.489l.031-.049.056-.089.3-.489c.073-.12.147-.241.218-.363l.077-.127.209-.368c.03-.052.061-.1.091-.159l.059-.1.066-.117.01-.021.047-.08c.01-.023.023-.044.035-.065.066-.119.131-.237.2-.349l.014-.024c.058-.1.113-.211.175-.318.077-.145.154-.29.229-.436l.175-.349c.044-.086.086-.175.127-.257.03-.058.058-.115.086-.175s.049-.1.072-.147c0-.016.016-.031.023-.047l.023-.047.031-.066.14-.3c.009-.014.014-.03.021-.044.038-.082.077-.164.113-.246l.066-.145.157-.349.063-.141a5.25 5.25 0 0 1 .051-.117l.161-.377.07-.164c.016-.037.031-.075.045-.113s.052-.122.077-.185a37.33 37.33 0 0 0 .257-.647l.01-.03c0-.014.012-.026.016-.038l.016-.038.021-.058c.017-.045.035-.089.051-.134s.033-.084.047-.126c.051-.131.1-.262.145-.393.072-.2.141-.391.209-.588a.393.393 0 0 1 .014-.042c.033-.094.065-.187.1-.279s.051-.155.075-.232c.127-.389.25-.778.367-1.171q.115-.393.225-.785l.106-.394c.068-.264.136-.524.2-.791l.094-.4.175-.775.016-.075c.024-.115.049-.23.072-.349l.079-.4c.019-.1.04-.206.058-.311q.052-.279.1-.56a30.424 30.424 0 0 0 .174-1.132c.019-.129.035-.257.052-.384a.174.174 0 0 1 .01-.072c.031-.251.061-.5.089-.757.014-.134.03-.269.042-.4l.038-.4q.094-1.047.133-2.084c0-.147.012-.293.016-.438q.016-.569.016-1.136v-.754c0-.251-.01-.48-.019-.719v-.059c0-.243-.019-.485-.033-.728s-.03-.5-.049-.752v-.031c-.017-.241-.038-.482-.061-.721s-.047-.5-.075-.749c-.026-.23-.054-.461-.084-.7a.212.212 0 0 0-.012-.086q-.047-.36-.1-.717a28.955 28.955 0 0 0-.315-1.804 36.901 36.901 0 0 0-.227-1.087l-.07-.307c-.025-.107-.049-.213-.077-.319-.054-.229-.11-.456-.175-.682-.021-.084-.042-.175-.065-.25-.051-.192-.1-.382-.157-.574s-.112-.389-.175-.585-.108-.36-.174-.539a4.02 4.02 0 0 0-.093-.293v-.024a10.356 10.356 0 0 0-.175-.515 2.811 2.811 0 0 1-.04-.12c-.072-.208-.143-.414-.216-.62-.084-.232-.175-.464-.257-.7a26.295 26.295 0 0 0-.138-.358c-.024-.065-.049-.127-.075-.192a6.126 6.126 0 0 0-.175-.412l-.129-.312q-.328-.787-.7-1.562-.654-1.452-1.449-2.848c-.082-.143-.164-.286-.248-.429s-.175-.286-.253-.428-.175-.284-.26-.426q-.654-1.047-1.38-2.094c-.084-.119-.175-.237-.253-.349l-.244-.335q-.524-.712-1.086-1.407c-.092-.115-.185-.229-.279-.349s-.188-.227-.283-.349q-.349-.414-.7-.815c-.15-.175-.3-.335-.452-.5a68.57 68.57 0 0 0-.99-1.047 27.416 27.416 0 0 0-.38-.382.728.728 0 0 0-.065-.063 22.967 22.967 0 0 1-.349-.349l-.152-.147-.293-.279-.175-.175-.295-.269q-.215-.2-.435-.387l-.264-.23-.323-.276-.194-.162q-.464-.391-.937-.761c-.058-.045-.115-.091-.174-.134-.12-.1-.241-.188-.363-.279l-.274-.208c-.3-.222-.6-.44-.9-.651l-.293-.2-.462-.316-.461-.305-.332-.211c-.08-.054-.162-.1-.244-.155l-.2-.124c-.147-.092-.293-.175-.442-.269-.07-.042-.14-.086-.209-.126-.159-.1-.318-.19-.478-.281l-.279-.159q-.524-.3-1.058-.578l-.424-.22-.339-.175q-.8-.4-1.614-.763l-.361-.159c-.162-.072-.326-.141-.492-.211l-.558-.229a6.971 6.971 0 0 0-.468-.175l-.026-.01-.349-.134-.613-.225c-.2-.072-.4-.141-.6-.209l-.045-.016c-.141-.047-.283-.1-.426-.141q-.115-.038-.23-.073c-.175-.058-.349-.112-.524-.175l-.133-.04c-.194-.059-.387-.115-.583-.175q-.077-.023-.152-.042a21.648 21.648 0 0 0-.482-.134l-.154-.04-.44-.113q-.8-.2-1.607-.37c-.2-.044-.41-.086-.616-.124h-.026q-.295-.058-.592-.11l-.14-.024a27.527 27.527 0 0 0-.64-.106l-.1-.016q-.262-.042-.524-.079l-.154-.021c-.209-.03-.419-.058-.628-.082h-.03l-.616-.07-.175-.017-.524-.051-.175-.016-.6-.045h-.047c-.216-.016-.435-.028-.651-.04s-.4-.019-.6-.026l-.276-.01c-.2 0-.391-.012-.586-.014h-1.322c-.208 0-.415 0-.621.014-.349.01-.7.024-1.047.045l-.322.01q-.48.028-.958.073a1.454 1.454 0 0 0-.246.021c-.368.035-.735.073-1.1.119q-.649.075-1.295.175c-.2.03-.407.063-.611.1s-.41.07-.614.108q-.688.129-1.374.279l-.414.092-.365.087-.349.087c-.2.049-.389.1-.583.15q-.56.148-1.115.314c-.642.192-1.279.4-1.92.623-.175.063-.365.129-.546.2l-.054.019-.539.2c-.175.068-.349.136-.524.208l-.175.072-.51.232c-.209.089-.417.175-.625.271l-.536.243c-.194.089-.387.175-.579.272-.145.068-.29.14-.435.213-.2.1-.4.2-.593.3l-.257.133-.377.2-.056.03a40.729 40.729 0 0 0-4.429 2.775l-.393.277c-.248.175-.492.368-.736.557l-.236.175q-.574.447-1.133.92l-.084.07a35.578 35.578 0 0 0-.386-.391q-.335-.339-.681-.667c-.12-.113-.241-.229-.363-.349s-.211-.2-.318-.293a24.746 24.746 0 0 0-.417-.375c-.108-.1-.218-.194-.33-.29-.138-.12-.277-.241-.417-.349l-.379-.316-.363-.3q-.524-.428-1.068-.831c-.126-.1-.251-.188-.379-.281-.066-.051-.134-.1-.2-.148l-.321-.23a20.18 20.18 0 0 0-.4-.279l-.382-.26-.373-.251a41.94 41.94 0 0 0-2.234-1.372c-.147-.084-.295-.175-.445-.25-.415-.23-.836-.452-1.258-.667l-.274-.138-.272-.134c-.152-.075-.305-.148-.457-.22s-.305-.145-.459-.215l-.463-.208c-.154-.07-.309-.136-.464-.2s-.337-.145-.506-.213l-.428-.175a7.431 7.431 0 0 0-.469-.175l-.457-.175h-.016a44.535 44.535 0 0 0-.949-.339l-.487-.164-.469-.15c-.159-.051-.319-.1-.48-.148l-.481-.142q-.483-.14-.97-.267l-.485-.124c-.325-.082-.651-.161-.977-.232s-.653-.143-.981-.206-.656-.126-.986-.183l-.5-.084a42.15 42.15 0 0 0-1.115-.162l-.564-.066q-.838-.1-1.679-.162a42.36 42.36 0 0 0-1.124-.07q-1.157-.058-2.316-.047h-.539c-.152 0-.3 0-.454.012l-.386.014c-.161 0-.321.014-.483.023s-.29.016-.435.026l-.438.03c-.145.009-.29.021-.435.035l-.318.028a20.46 20.46 0 0 0-.55.054.859.859 0 0 0-.133.016c-.162.016-.325.035-.485.056l-.248.031c-.157.019-.312.04-.469.063l-.349.051c-.194.028-.389.058-.583.091s-.375.061-.562.1a48.79 48.79 0 0 0-.646.12c-.122.024-.243.047-.363.073-.159.031-.316.065-.475.1l-.305.068c-.105.024-.155.033-.232.052l-.675.162-.113.028-.281.072-.613.164-.7.2h-.021l-.489.148c-.164.051-.326.1-.489.155l-.175.056q-.543.175-1.08.372c-.112.038-.223.08-.333.122q-1.5.555-2.967 1.237c-.115.052-.23.108-.349.162q-1.253.6-2.475 1.283l-.283.161c-.155.087-.307.175-.461.267q-.4.241-.8.489l-.333.209c-.038.024-.077.047-.113.073q-.935.6-1.845 1.253H81.2c-.113.082-.225.162-.337.246-.157.115-.312.23-.466.349l-.25.19-.143.112q-.361.281-.719.572l-.26.234-.276.227c-.143.122-.286.243-.428.366q-.363.314-.717.635l-.283.258-.049.045-.112.1a36.693 36.693 0 0 0-1.29 1.258c-.082.082-.164.175-.244.25q-.288.3-.569.6l-.2.218c-.424.462-.836.935-1.232 1.414a15.817 15.817 0 0 0-.481.586c-.061.08-.127.157-.188.237a.439.439 0 0 0-.045.058c-.073.091-.143.175-.213.272a30.14 30.14 0 0 0-.757 1.013c-.108.148-.215.3-.318.447-.126.175-.251.361-.375.543-.246.363-.485.728-.721 1.1l-.349.557c-.117.187-.225.373-.335.56s-.22.377-.326.565-.2.349-.29.524q-.459.834-.873 1.689a7.142 7.142 0 0 0-.134.279c-.061.126-.12.25-.175.375l-.023.049c-.077.175-.152.332-.227.5a51.617 51.617 0 0 0-.465 1.078q-.312.752-.592 1.517a21.532 21.532 0 0 0-.235.658q-.084.236-.162.476a35.827 35.827 0 0 0-.209.639q-.164.524-.316 1.047a11.51 11.51 0 0 0-.075.265c-.042.15-.084.3-.122.449-.056.206-.11.414-.161.621s-.1.4-.147.6v.033c-.031.138-.063.274-.093.412l-.058.264c-.052.243-.1.487-.15.731a37.987 37.987 0 0 0-.218 1.202c-.026.157-.052.312-.075.469a.875.875 0 0 1-.017.115c-.023.15-.045.3-.066.452 0 .051-.016.1-.021.155q-.037.262-.068.524c-.03.241-.056.482-.082.723a39.601 39.601 0 0 0-.19 2.659c0 .133-.01.265-.014.4a41.614 41.614 0 0 0-.016 1.769z" transform="translate(-14.399 -11.391)" style="fill:url(#39t2zon2ab)"/>
        <path data-name="패스 852" d="M83.55 354.782a38.967 38.967 0 0 0 .59.997l.3.489c.073.119.148.236.225.349q.079.126.162.251.175.277.367.55c.25.372.508.738.773 1.1l-.082.07 4.388 5.222 10.339 12.274q2.922.686 5.934 1.18a640.075 640.075 0 0 0 20.245 2.991l1.281.164.119.016.23.03 1.2.152c.5.063 1.009.126 1.513.185.372.047.745.092 1.117.136l.464.056c7.969.949 16.056 1.721 23.922 2.185l.429.024c.625.037 1.246.072 1.867.1q1.4.073 2.777.131 5.555.233 10.862.225 1.267 0 2.515-.023l.826-.014.349-.009a136.22 136.22 0 0 0 1.7-.045q1.424-.044 2.819-.112c.473-.023.942-.049 1.408-.075l.984-.061.106-.089 2.532-2.133 1.635-1.379.585-.49.3-.255.986-.829 2.984-2.513 8.541-7.192c.15-.126.3-.253.445-.38l.087-.077.033-.028c.152-.133.3-.265.449-.4.1-.091.2-.174.3-.274l.075-.07.086-.079.215-.2.023-.023.028-.026c.126-.117.248-.236.37-.349l.047-.034.244-.239c.065-.063.127-.127.19-.192a.061.061 0 0 0 .019-.017c.206-.2.407-.412.607-.62l.255-.269c.089-.094.174-.19.265-.286l.14-.152c.075-.08.148-.162.22-.243.042-.044.082-.089.122-.134l.2-.23c.12-.138.241-.277.36-.417.08-.092.159-.185.237-.279l.058-.068.047-.056c.1-.117.194-.234.288-.349l.052-.065c.094-.115.185-.23.276-.349.052-.063.1-.127.15-.19s.127-.162.188-.244.1-.129.15-.2a.45.45 0 0 0 .035-.045l.22-.292.073-.1.047-.063.061-.084.1-.138.052-.072.084-.115.106-.152.052-.072.075-.108c.082-.115.162-.232.243-.349l.175-.246.3-.449.024-.037c.106-.162.211-.325.314-.489l.031-.049.056-.089.3-.489c.073-.12.147-.241.218-.363l.077-.127.208-.368c.03-.052.061-.1.091-.159l.059-.1.066-.117.01-.021.047-.08c.01-.023.023-.044.035-.065.066-.119.131-.239.2-.349l.014-.024c.058-.1.113-.211.174-.318.077-.145.154-.29.229-.436l.175-.349c.044-.086.086-.174.127-.257.03-.058.058-.115.086-.175s.049-.1.072-.147c0-.016.016-.031.023-.047l.023-.047.031-.066.14-.3c.009-.014.014-.03.021-.044.038-.082.077-.164.113-.246l.066-.145.157-.349.063-.141a5.25 5.25 0 0 1 .051-.117l-24.452.246h-.234l-.873.009-1.745.017-1.311.014h-.349l-1.222.012-7.838.079-10.276.1-9.442.1h-.421l-1.173.012-1.6.016-1.1.005h-.349l-1.113.012z" transform="translate(-28.366 -293.851)" style="opacity:.1;fill:#143760"/>
        <path data-name="패스 853" d="M123.26 35.674H242c-.15-.175-.3-.335-.452-.5a68.57 68.57 0 0 0-.99-1.047 27.416 27.416 0 0 0-.38-.382.727.727 0 0 0-.065-.063 22.967 22.967 0 0 1-.349-.349l-.152-.147-.293-.279-.175-.175-.295-.269q-.215-.2-.435-.387l-.264-.23-.323-.276-.194-.162q-.464-.391-.937-.761c-.058-.045-.115-.091-.175-.134-.12-.1-.241-.188-.363-.279l-.274-.208c-.3-.222-.6-.44-.9-.651l-.293-.2-.462-.316-.461-.305-.332-.211c-.08-.054-.162-.1-.244-.155l-.2-.124c-.147-.092-.293-.175-.442-.269-.07-.042-.14-.086-.209-.126-.159-.1-.318-.19-.478-.281l-.279-.159q-.524-.3-1.058-.578l-.424-.22-.339-.175q-.8-.4-1.614-.763l-.361-.159c-.162-.072-.326-.141-.492-.211l-.558-.229a6.971 6.971 0 0 0-.468-.175l-.026-.01-.349-.134-.613-.225c-.2-.072-.4-.141-.6-.209l-.045-.016c-.141-.047-.283-.1-.426-.141q-.115-.038-.23-.073c-.175-.058-.349-.112-.524-.175l-.133-.04c-.194-.059-.387-.115-.583-.175a148.018 148.018 0 0 1-30.582 3.3 40.731 40.731 0 0 0-4.429 2.775l-.4.307c-.248.175-.492.368-.736.557l-.236.175q-.574.447-1.133.92l-.084.07a35.578 35.578 0 0 0-.386-.391q-.335-.339-.681-.667c-.12-.113-.241-.229-.363-.349s-.211-.2-.318-.293a24.746 24.746 0 0 0-.417-.375c-.108-.1-.218-.194-.33-.29-.138-.12-.277-.241-.417-.349l-.379-.316-.363-.3q-.524-.428-1.068-.831c-.126-.1-.251-.188-.379-.281-.066-.051-.134-.1-.2-.148l-.321-.23a20.18 20.18 0 0 0-.4-.279 224.651 224.651 0 0 1-26.692-3.147A39.355 39.355 0 0 1 144.314 21l-.489.148c-.164.051-.326.1-.489.155l-.175.056q-.543.175-1.08.372c-.112.038-.223.08-.333.122q-1.5.555-2.967 1.237c-.115.052-.23.108-.349.162q-1.253.6-2.475 1.283l-.283.161c-.155.087-.307.175-.461.267q-.4.241-.8.489c-.148.092-.3.187-.447.283q-.935.6-1.845 1.253l-.349.255c-.157.115-.312.23-.466.349l-.393.3q-.361.281-.719.572l-.262.213-.276.227c-.143.122-.286.243-.428.366q-.363.314-.717.635l-.283.258-.049.045-.112.1a36.693 36.693 0 0 0-1.29 1.258c-.082.082-.164.175-.244.25q-.288.3-.569.6l-.2.218c-.424.462-.836.935-1.232 1.414a15.817 15.817 0 0 0-.481.586c-.061.08-.127.157-.189.237a.439.439 0 0 0-.045.058c-.073.091-.143.175-.213.272-.114.167-.232.319-.344.473z" transform="translate(-65.303 -19.323)" style="opacity:.1;fill:#143760"/>
        <path data-name="패스 854" d="M168.557 238.134c-.028.082-.054.166-.082.253l-.082.269h-1.1a1.733 1.733 0 0 0 1.26-.522zm0 0c-.028.082-.054.166-.082.253l-.082.269h-1.1a1.733 1.733 0 0 0 1.26-.522zm0 0c-.028.082-.054.166-.082.253l-.082.269h-1.1a1.733 1.733 0 0 0 1.26-.522zm0 0c-.028.082-.054.166-.082.253l-.082.269h-1.1a1.733 1.733 0 0 0 1.26-.522zm0 0-.079.25c-.027.086-.056.175-.084.269H167.3a1.733 1.733 0 0 0 1.257-.519zM117 230l.51-.026.246-.012.25-.014h.075l.349-.017 1.644-.084.349-.017 1.571-.08.618-.031 57.43-2.93.279-.016 4.665-.237.745-.038 1.1-.056.506-.024.681-.035.684-.035 12.182-.621q.052.36.1.717a.2.2 0 0 0 .012.086 38.74 38.74 0 0 1 .159 1.449c.023.249.044.48.061.721v.031a37.453 37.453 0 0 1 .082 1.48v.059c0 .239.014.48.019.719s0 .5 0 .754q0 .569-.016 1.136a4.1 4.1 0 0 1-.016.438q-.038 1.047-.133 2.084c-.012.136-.024.271-.038.4l-.042.4c-.028.253-.058.506-.089.757a.166.166 0 0 1-.01.072c-.017.127-.033.255-.052.384a32.678 32.678 0 0 1-.174 1.132q-.047.281-.1.56c-.017.1-.038.208-.058.311l-.079.4-.072.349-.016.075c-.054.26-.112.524-.175.775l-.094.4c-.065.264-.133.524-.2.791l-.106.394q-.094.389-.216.791c-.117.393-.239.782-.366 1.171l-10.386.33-.478.016-2.033.054-1.778.058-.431.012-9.976.319-1.789.056-2.431.079-.384.012h-.211l-.337.012-1.583.049-27.4.873-1.867.059-2.047.066-.349.01h-.127l-1.56.049-15.444.5-.286.009h-.035l-2.106.066h-.027l-.457.016-10.868.349-1.9.061-2.876.091h-.339l-.524.017-.675.021-1.648.052-27.739.883a16.95 16.95 0 0 1-.5-.949c-.077-.147-.15-.293-.223-.44q-.257-.511-.494-1.023c-.072-.152-.141-.3-.209-.457-.086-.19-.175-.382-.253-.572l-.175-.408c-.058-.136-.126-.3-.187-.454q-.2-.5-.387-.995c-.047-.124-.093-.248-.138-.373s-.079-.216-.117-.325c-.063-.175-.122-.349-.175-.524s-.129-.387-.192-.583-.113-.349-.175-.532l-.091-.3a31.186 31.186 0 0 1-.305-1.084l-.117-.443a32.635 32.635 0 0 1-.287-1.217l-.07-.323a44.332 44.332 0 0 1-.4-2.135l-.045-.295c-.035-.223-.066-.447-.1-.67s-.063-.475-.091-.714v-.066q-.017-.143-.031-.288l-.035-.326c-.017-.175-.033-.333-.047-.5v-.019zm31.447 8.656h3.26a1.432 1.432 0 1 0 0 2.836H170.6a1.539 1.539 0 0 0 1.593-1.417 1.37 1.37 0 0 0-.656-1.136 1.77 1.77 0 0 0-.97-.283H167.3a1.733 1.733 0 0 0 1.257-.524 1.3 1.3 0 0 0 .37-.9.911.911 0 0 0 0-.12 1.561 1.561 0 0 0-1.623-1.293h2.325a1.433 1.433 0 1 0 0-2.838h-18.857a1.433 1.433 0 1 0 0 2.838h-2.328a1.431 1.431 0 1 0 0 2.834zm20.114-.524c-.028.082-.054.166-.082.253l-.082.269h-1.1a1.733 1.733 0 0 0 1.26-.517zm0 0c-.028.082-.054.166-.082.253l-.082.269h-1.1a1.733 1.733 0 0 0 1.26-.517zm0 0c-.028.082-.054.166-.082.253l-.082.269h-1.1a1.733 1.733 0 0 0 1.26-.517zm0 0c-.028.082-.054.166-.082.253l-.082.269h-1.1a1.733 1.733 0 0 0 1.26-.517zm0 0c-.028.082-.054.166-.082.253l-.082.269h-1.1a1.733 1.733 0 0 0 1.26-.517z" transform="translate(-14.326 -188.343)" style="opacity:.1;fill:#143760"/>
        <path data-name="패스 855" d="M200.879 121.037a1.538 1.538 0 0 0-1.628-1.417h1.426q.363.775.7 1.562c.044.1.087.208.129.312.056.136.112.274.175.412.026.065.051.127.075.192.047.119.092.239.138.358h-2.618a1.532 1.532 0 0 0 1.603-1.419zm-133.217 8.23q.031-.262.068-.524a1.147 1.147 0 0 1 .021-.155c.021-.152.044-.3.066-.452a.657.657 0 0 1 .017-.115c.023-.157.049-.312.075-.469a37.987 37.987 0 0 1 .218-1.202c.047-.244.1-.489.15-.731l.058-.264.092-.412v-.033q.07-.3.147-.6c.051-.208.1-.415.161-.621.038-.15.08-.3.122-.449.024-.089.049-.175.075-.265q.152-.524.316-1.047c.03-.1.061-.194.092-.29s.077-.234.117-.349q.079-.241.162-.476l.108-.309c.036-.103.084-.236.127-.349q.279-.764.592-1.517a39.084 39.084 0 0 1 .465-1.078l.227-.5.023-.049.175-.375c.044-.094.087-.187.134-.279q.415-.853.873-1.689c.094-.175.192-.349.29-.524s.215-.377.326-.565.222-.375.335-.56.229-.372.349-.557c.236-.37.475-.735.721-1.1.124-.175.25-.363.375-.543l122.327 2.592q.725 1.026 1.38 2.094c.089.141.175.284.26.426s.174.284.253.428.175.286.248.429h-16.485a1.433 1.433 0 1 0 0 2.838h-2.328a1.432 1.432 0 1 0 0 2.836h3.258a1.432 1.432 0 1 0 0 2.836H202.5a1.7 1.7 0 0 0 .314-.028c.058.2.115.389.175.585s.106.382.157.574c.023.082.044.166.065.25.059.227.115.454.175.682.028.106.052.213.077.319s.047.2.07.307c.051.225.1.45.145.677.028.136.056.274.082.41q.093.461.175.921H67.58c.026-.246.052-.487.082-.728z" transform="translate(-17.516 -93.467)" style="opacity:.1;fill:#143760"/>
        <path data-name="패스 856" d="M77.03 376.907a34.909 34.909 0 0 1 14.28-6.161c.4-.08.806-.159 1.222-.23q1.208-.209 2.34-.5 1.075-.267 2.094-.593c.155-.049.311-.1.464-.154a33.172 33.172 0 0 0 4.721-2.005l.407.482 1.813 2.155 12.477 14.815 4.822 5.726L126 395.6l.188.213.037-.031.436-.368.4-.337 1.159-.976 4.843-4.086 2.412-2.031 1.628-1.37 2.12-1.782.349-.29 1.335-1.126 1.286-1.08 5.073-4.272 2.543-2.141.916-.771.421-.349 2.187-1.843 3.731-3.141.485-.408.047-.04 1.555-1.309 1.941-1.653 2.164-1.822.379-.319 1.075-.908 1.475-1.243 4.079-3.435.642-.541.106-.089 2.532-2.133 1.635-1.379.585-.49.3-.255.986-.829 2.995-2.515 8.541-7.192c.15-.126.3-.253.445-.38l.087-.077.033-.028c.152-.133.3-.265.449-.4.1-.091.2-.175.3-.274l.075-.07.086-.079.215-.2.023-.023.028-.026c.126-.117.248-.236.37-.349l.175-.164.122-.12.19-.192.014-.014c.206-.2.407-.412.607-.62l.255-.269c.089-.094.175-.19.265-.286l.14-.152c.075-.08.148-.162.22-.243a49.898 49.898 0 0 0 .922-1.061l.058-.068q.174-.2.335-.408l.052-.065c.094-.115.185-.23.276-.349.052-.063.1-.127.15-.19s.127-.162.188-.244.1-.129.15-.2a.445.445 0 0 0 .035-.045c.1-.129.2-.26.293-.391l.047-.063.061-.084.1-.138.052-.072.19-.267.052-.072.075-.108c.082-.115.162-.232.243-.349l.175-.246.3-.449.024-.037c.106-.162.211-.325.314-.489l.031-.049.056-.089.3-.489c.073-.12.147-.241.218-.363l.077-.127.209-.368c.03-.052.061-.1.091-.159l.059-.1.066-.117.01-.021c.028-.047.054-.1.082-.145.066-.119.131-.237.2-.349l.014-.024c.058-.1.113-.211.175-.318.077-.145.154-.29.229-.436l.175-.349c.044-.086.086-.175.127-.257.03-.058.058-.115.086-.174l.072-.147c0-.016.016-.031.023-.047l.023-.047.031-.066.14-.3c.009-.014.014-.03.021-.044.038-.082.077-.164.113-.246l.066-.145.157-.349.063-.141a5.25 5.25 0 0 1 .051-.117l.161-.377.07-.164c.016-.037.031-.075.045-.113s.052-.122.077-.185a37.33 37.33 0 0 0 .257-.647l.01-.03c0-.014.012-.026.016-.038l.016-.038.021-.058c.017-.045.035-.089.051-.134s.033-.084.047-.126c.051-.131.1-.262.145-.393.072-.2.141-.391.209-.588a.394.394 0 0 1 .014-.042 85.152 85.152 0 0 1-10.215-.175c-3.686-.328-6.9-1.009-9.075-2.216 0 0-2.051.524-5.025 1.332a446.827 446.827 0 0 0-4.733 1.308l-.452.129-.237.066-.333.1-1.562.45a213.285 213.285 0 0 0-7.539 2.33 46.723 46.723 0 0 0-6.037 2.351 7.34 7.34 0 0 0-.63.363 5.19 5.19 0 0 1-.389.23c-2.408 1.3-7.5 2.054-12.142 2.361a67.624 67.624 0 0 1-4.37.165h-.36q-.574 0-1.093-.014a30.187 30.187 0 0 1-1.668-.08 7.5 7.5 0 0 1-1.539-.241c-2.412-.8-13.361-3.065-15.478-1.668s-22.65 3.51-26.388 1.668-1.166-3.85-5.463-1.668a74.934 74.934 0 0 0-8.131 6.475l10.339 12.274 2.478 2.944a23.7 23.7 0 0 0-5.119 6.649c-3.432 6.737-6.374 12.863-8.69 16.392z" transform="translate(-16.111 -268.685)" style="fill:#143760"/>
        <path data-name="패스 857" d="M77.03 376.907a34.909 34.909 0 0 1 14.28-6.161c.4-.08.806-.159 1.222-.23q1.208-.209 2.34-.5 1.075-.267 2.094-.593c.155-.049.311-.1.464-.154a33.172 33.172 0 0 0 4.721-2.005l.407.482 1.813 2.155 12.477 14.815 4.822 5.726L126 395.6l.188.213.037-.031.436-.368.4-.337 1.159-.976 4.843-4.086 2.412-2.031 1.628-1.37 2.12-1.782.349-.29 1.335-1.126 1.286-1.08 5.073-4.272 2.543-2.141.916-.771.421-.349 2.187-1.843 3.731-3.141.485-.408.047-.04 1.555-1.309 1.941-1.653 2.164-1.822.379-.319 1.075-.908 1.475-1.243 4.079-3.435.642-.541.106-.089 2.532-2.133 1.635-1.379.585-.49.3-.255.986-.829 2.995-2.515 8.541-7.192c.15-.126.3-.253.445-.38l.087-.077.033-.028c.152-.133.3-.265.449-.4.1-.091.2-.175.3-.274l.075-.07.086-.079.215-.2.023-.023.028-.026c.126-.117.248-.236.37-.349l.175-.164.122-.12.19-.192.014-.014c.206-.2.407-.412.607-.62l.255-.269c.089-.094.175-.19.265-.286l.14-.152c.075-.08.148-.162.22-.243a49.898 49.898 0 0 0 .922-1.061l.058-.068q.174-.2.335-.408l.052-.065c.094-.115.185-.23.276-.349.052-.063.1-.127.15-.19s.127-.162.188-.244.1-.129.15-.2a.445.445 0 0 0 .035-.045c.1-.129.2-.26.293-.391l.047-.063.061-.084.1-.138.052-.072.19-.267.052-.072.075-.108c.082-.115.162-.232.243-.349l.175-.246.3-.449.024-.037c.106-.162.211-.325.314-.489l.031-.049.056-.089.3-.489c.073-.12.147-.241.218-.363l.077-.127.209-.368c.03-.052.061-.1.091-.159l.059-.1.066-.117.01-.021c.028-.047.054-.1.082-.145.066-.119.131-.237.2-.349l.014-.024c.058-.1.113-.211.175-.318.077-.145.154-.29.229-.436l.175-.349c.044-.086.086-.175.127-.257.03-.058.058-.115.086-.174l.072-.147c0-.016.016-.031.023-.047l.023-.047.031-.066.14-.3c.009-.014.014-.03.021-.044.038-.082.077-.164.113-.246l.066-.145.157-.349.063-.141a5.25 5.25 0 0 1 .051-.117l.161-.377.07-.164c.016-.037.031-.075.045-.113s.052-.122.077-.185a37.33 37.33 0 0 0 .257-.647l.01-.03c0-.014.012-.026.016-.038l.016-.038.021-.058c.017-.045.035-.089.051-.134s.033-.084.047-.126c.051-.131.1-.262.145-.393.072-.2.141-.391.209-.588a.394.394 0 0 1 .014-.042 85.152 85.152 0 0 1-10.215-.175c-3.686-.328-6.9-1.009-9.075-2.216 0 0-2.051.524-5.025 1.332a446.827 446.827 0 0 0-4.733 1.308l-.452.129-.237.066-.333.1-1.562.45a213.285 213.285 0 0 0-7.539 2.33 46.723 46.723 0 0 0-6.037 2.351 7.34 7.34 0 0 0-.63.363 5.19 5.19 0 0 1-.389.23c-2.408 1.3-7.5 2.054-12.142 2.361a67.624 67.624 0 0 1-4.37.165h-.36q-.574 0-1.093-.014a30.187 30.187 0 0 1-1.668-.08 7.5 7.5 0 0 1-1.539-.241c-2.412-.8-13.361-3.065-15.478-1.668s-22.65 3.51-26.388 1.668-1.166-3.85-5.463-1.668a74.934 74.934 0 0 0-8.131 6.475l10.339 12.274 2.478 2.944a23.7 23.7 0 0 0-5.119 6.649c-3.432 6.737-6.374 12.863-8.69 16.392z" transform="translate(-16.111 -268.685)" style="opacity:.5"/>
        <path data-name="패스 858" d="M790.019 631.88a18.094 18.094 0 0 0-3.349 3.141c.892.058 2.018-1.111 3.349-3.141z" transform="translate(-729.1 -523.663)" style="fill:#143760"/>
        <circle data-name="타원 149" cx=".171" cy=".171" transform="translate(173.049 20.822)" style="fill:#fff" r=".171"/>
        <circle data-name="타원 150" cx=".171" cy=".171" transform="translate(72.23 30.459)" style="fill:#fff" r=".171"/>
        <circle data-name="타원 151" cx=".171" cy=".171" transform="translate(129.767 16.73)" style="fill:#fff" r=".171"/>
        <circle data-name="타원 152" cx=".171" cy=".171" transform="translate(108.243 17.002)" style="fill:#fff" r=".171"/>
        <circle data-name="타원 153" cx=".171" cy=".171" transform="translate(121.507 32.963)" style="fill:#fff" r=".171"/>
        <circle data-name="타원 154" cx=".171" cy=".171" transform="translate(90.092 22.164)" style="fill:#fff" r=".171"/>
        <circle data-name="타원 155" cx=".37" cy=".37" transform="translate(103.859 12.36)" style="opacity:.5;fill:#fff" r=".37"/>
        <circle data-name="타원 156" cx=".37" cy=".37" transform="translate(87.588 8.524)" style="opacity:.5;fill:#fff" r=".37"/>
        <circle data-name="타원 157" cx=".145" cy=".145" transform="translate(150.155 37.691)" style="opacity:.5;fill:#fff" r=".145"/>
        <circle data-name="타원 158" cx=".145" cy=".145" transform="translate(154.692 17.173)" style="opacity:.5;fill:#fff" r=".145"/>
        <circle data-name="타원 159" cx=".145" cy=".145" transform="translate(158.183 26.637)" style="opacity:.5;fill:#fff" r=".145"/>
        <circle data-name="타원 160" cx=".145" cy=".145" transform="translate(113.505 25.629)" style="opacity:.5;fill:#fff" r=".145"/>
        <circle data-name="타원 161" cx=".145" cy=".145" transform="translate(81.043 15.471)" style="opacity:.5;fill:#fff" r=".145"/>
        <circle data-name="타원 162" cx=".37" cy=".37" transform="translate(135.118 25.033)" style="opacity:.5;fill:#fff" r=".37"/>
        <circle data-name="타원 163" cx=".37" cy=".37" transform="translate(141.69 10.035)" style="opacity:.5;fill:#fff" r=".37"/>
        <circle data-name="타원 164" cx=".37" cy=".37" transform="translate(114.705 17.053)" style="opacity:.5;fill:#fff" r=".37"/>
        <path data-name="패스 859" d="M109.01 88.441h.092v-.091h.021v.091h.091v.023h-.091v.091h-.023v-.091h-.092z" transform="translate(58.756 -72.938)" style="fill:#fff"/>
        <path data-name="패스 860" d="M668.95 96.971h.091v-.091h.021v.091h.091v.023h-.091v.091h-.021v-.091h-.091z" transform="translate(-598.905 -79.979)" style="fill:#fff"/>
        <path data-name="패스 861" d="M213.24 99.445h.176v-.175h.04v.175h.176v.042h-.176v.175h-.04v-.175h-.176z" transform="translate(-63.853 -81.952)" style="fill:#fff"/>
        <path data-name="패스 862" d="M247.26 166.926h.175v-.176h.042v.176h.175v.04h-.175v.176h-.042v-.176h-.175z" transform="translate(-103.809 -137.655)" style="fill:#fff"/>
        <path data-name="패스 863" d="M97.02 183.595h.175v-.175h.042v.175h.175v.042h-.175v.174h-.042v-.174h-.175z" transform="translate(72.652 -151.437)" style="fill:#fff"/>
        <path data-name="패스 864" d="M442.68 204.6h.176v-.176h.04v.176h.176v.04h-.172v.175h-.04v-.175h-.176z" transform="translate(-333.336 -168.774)" style="fill:#fff"/>
        <path data-name="패스 865" d="M566.35 168.055h.174v-.175h.042v.175h.174v.04h-.174v.176h-.042v-.176h-.174z" transform="translate(-478.587 -138.588)" style="fill:#fff"/>
        <path data-name="패스 866" d="M369.65 608.4a24.258 24.258 0 0 0 5.658 4.8l2.543-2.141c-2.377-2.049-5.807-4.259-8.201-2.659z" transform="translate(-244.152 -503.826)" style="fill:#143760"/>
        <path data-name="패스 867" d="M377.111 571.534s-6.052-6.56-10.471-4.932c0 0 5.176 6.806 11.285 6.981z" transform="translate(-243.701 -469.557)" style="fill:#143760"/>
        <path data-name="패스 868" d="M394.929 528.392s-6.689-6.283-9.6-5.178c0 0 4.829 6.981 9.89 6.574z" transform="translate(-264.258 -433.842)" style="fill:#143760"/>
        <path data-name="패스 869" d="M411.211 481.272s-5.759-7.5-8.9-6.923c0 0 3.49 6.689 8.9 7.679z" transform="translate(-283.212 -393.581)" style="fill:#143760"/>
        <path data-name="패스 870" d="M425.64 433.99s-5.091-5.759-7.84-5.74c0 0 4.014 7.679 8.049 7.616z" transform="translate(-300.553 -355.548)" style="fill:#143760"/>
        <path data-name="패스 871" d="m430.161 369.153-4.92-11.983S425 368 430.784 371.376z" transform="translate(-306.787 -296.867)" style="fill:#143760"/>
        <path data-name="패스 872" d="M441.811 298.93s-.813-10.007-.29-10.82c0 0-3.517 8.318.325 15.241z" transform="translate(-320.433 -239.851)" style="fill:#143760"/>
        <path data-name="패스 873" d="m324.52 584.19 3.731-3.141.485-.408v-.063c.122-1.03.136-1.677.136-1.677-2.298.179-3.612 2.706-4.352 5.289z" transform="translate(-187.298 -479.924)" style="fill:#143760"/>
        <path data-name="패스 874" d="M339.66 547.588s1.435-8.812 6.021-9.888c0 0-.569 8.532-5.569 12.042z" transform="translate(-206.748 -445.912)" style="fill:#143760"/>
        <path data-name="패스 875" d="M371.449 504.075s.049-9.176 2.853-10.525c0 0 1.745 8.307-2.04 11.693z" transform="translate(-241.319 -409.462)" style="fill:#143760"/>
        <path data-name="패스 876" d="M383.99 462.574s.393-9.452 3.3-10.784c0 0 .995 7.48-2.862 11.4z" transform="translate(-256.206 -374.985)" style="fill:#143760"/>
        <path data-name="패스 877" d="M405.394 420.57s.019-7.679 2.094-9.491c0 0 2.063 8.421-1.007 11.037z" transform="translate(-280.706 -341.374)" style="fill:#143760"/>
        <path data-name="패스 878" d="m411.535 363.146 2.016-12.8s2.742 10.484-2.112 15.1z" transform="translate(-287.917 -291.237)" style="fill:#143760"/>
        <path data-name="패스 879" d="M402.6 305.564s5.178-8.6 5.072-9.564c0 0-.55 9.014-7.068 13.508z" transform="translate(-279.373 -246.365)" style="fill:#143760"/>
        <path data-name="패스 880" d="M392.887 273.786s4.887-12.217 7.1-13.206a15.487 15.487 0 0 0-7.5 12.857z" transform="translate(-270.27 -217.122)" style="fill:#143760"/>
        <path data-name="패스 881" d="m419.775 356.3.333-.1c-4.124-13.447-5.152-22.032-2.9-24.17l-.241-.255c-2.388 2.264-1.417 10.744 2.808 24.525z" transform="translate(-294.445 -275.9)" style="fill:#444053"/>
        <path data-name="패스 882" d="m361.97 466.58.157.51.115.379c.014.037.024.073.035.11.644 2.066 1.37 4.311 2.173 6.689.15.452.305.908.462 1.368a417.05 417.05 0 0 0 2.16 6.159l.017.042c.157.44.318.873.48 1.325q.921 2.531 1.92 5.159c.175.487.37.974.559 1.464.143.373.288.75.435 1.127q.052.141.11.283.476 1.23.969 2.475l.421-.349-.824-2.084c-.086-.218-.174-.435-.255-.651q-.262-.683-.524-1.358l-.016-.04q-.185-.482-.372-.958c-.7-1.806-1.372-3.581-2.019-5.312l-.236-.635c-.08-.216-.161-.431-.239-.646-.127-.349-.253-.681-.377-1.019-.665-1.812-1.3-3.572-1.89-5.271q-.229-.656-.449-1.3a227.632 227.632 0 0 1-2.028-6.138c-.112-.349-.218-.7-.323-1.035a.3.3 0 0 0-.023-.073l-.244-.124z" transform="translate(-236.943 -387.202)" style="fill:#444053"/>
        <path data-name="패스 883" d="m414.163 644.87-.873 4.244 1.286-1.08a26.708 26.708 0 0 0-.414-3.164z" transform="translate(-288.494 -534.388)" style="fill:#143760"/>
        <path data-name="패스 884" d="M426.635 590.448s-1.047-9.984-1.714-10.688c0 0 4.991 7.525 2.5 15.039z" transform="translate(-304.064 -480.638)" style="fill:#143760"/>
        <path data-name="패스 885" d="m443.463 654.43 1.628-1.37-2.6-7.29a27.148 27.148 0 0 0 .972 8.66z" transform="translate(-324.099 -535.133)" style="fill:#143760"/>
        <path data-name="패스 886" d="M435.011 603.641s-6.677-7.5-6.751-8.461c0 0 2.206 8.758 9.442 11.969z" transform="translate(-314.232 -493.368)" style="fill:#143760"/>
        <path data-name="패스 887" d="M450.5 573.527s-7.059-11.1-9.416-11.667a15.487 15.487 0 0 1 9.751 11.25z" transform="translate(-329.598 -465.858)" style="fill:#143760"/>
        <path data-name="패스 888" d="M428.29 624.53a2.377 2.377 0 0 1 .386.314c.906.9 1.52 2.775 1.841 5.536.019.174.037.333.052.506q.12 1.2.175 2.618l.349-.29a52.775 52.775 0 0 0-.138-2.145l-.016-.148a19.356 19.356 0 0 0-.761-4.042 5.557 5.557 0 0 0-1.318-2.347 2.591 2.591 0 0 0-.372-.291z" transform="translate(-307.628 -517.358)" style="fill:#444053"/>
        <path data-name="패스 889" d="m504.79 739 .189.213.037-.031c-.076-.063-.151-.126-.226-.182z" transform="translate(-394.901 -612.116)" style="fill:#143760"/>
        <path data-name="패스 890" d="m508.8 676.65 4.822 5.726a7.237 7.237 0 0 0 3.513.962q.175 0 .349-.016l-.038-.174-.143-.686-.11-.524-.129-.119a37.587 37.587 0 0 0-.4-.363l-.291-.253c-1.597-1.384-5.137-4.227-7.573-4.553z" transform="translate(-408.07 -560.626)" style="fill:#143760"/>
        <path data-name="패스 891" d="M534.741 634.659s-5.759-7.5-8.9-6.922c0 0 3.49 6.689 8.9 7.679z" transform="translate(-428.301 -520.218)" style="fill:#143760"/>
        <path data-name="패스 892" d="M549.121 587.38s-5.091-5.759-7.841-5.74c0 0 4.014 7.679 8.051 7.616z" transform="translate(-445.585 -482.187)" style="fill:#143760"/>
        <path data-name="패스 893" d="m553.678 522.534-4.916-11.984s-.246 10.834 5.541 14.208z" transform="translate(-451.863 -423.498)" style="fill:#143760"/>
        <path data-name="패스 894" d="M565.352 452.32s-.815-10.007-.291-10.82c0 0-3.515 8.318.325 15.241z" transform="translate(-465.533 -366.491)" style="fill:#143760"/>
        <path data-name="패스 895" d="m463.19 697.931 4.848-4.089a21.888 21.888 0 0 0 .422-2.782c-2.802.663-4.429 4.211-5.27 6.871z" transform="translate(-351.087 -572.523)" style="fill:#143760"/>
        <path data-name="패스 896" d="M494.98 657.466s.049-9.176 2.853-10.526c0 0 1.745 8.307-2.042 11.693z" transform="translate(-386.409 -536.101)" style="fill:#143760"/>
        <path data-name="패스 897" d="M507.52 615.994s.393-9.452 3.3-10.784c0 0 .995 7.48-2.862 11.4z" transform="translate(-401.295 -501.648)" style="fill:#143760"/>
        <path data-name="패스 898" d="M528.928 573.959s.017-7.679 2.094-9.489c0 0 2.061 8.421-1.007 11.035z" transform="translate(-425.799 -468.013)" style="fill:#143760"/>
        <path data-name="패스 899" d="m535.069 516.534 2.016-12.794s2.74 10.484-2.112 15.1z" transform="translate(-433.01 -417.876)" style="fill:#143760"/>
        <path data-name="패스 900" d="M526.127 458.962s5.178-8.6 5.072-9.562c0 0-.55 9.014-7.068 13.508z" transform="translate(-424.462 -373.012)" style="fill:#143760"/>
        <path data-name="패스 901" d="M516.417 427.176s4.887-12.217 7.1-13.206a15.484 15.484 0 0 0-7.5 12.857z" transform="translate(-415.359 -343.761)" style="fill:#143760"/>
        <path data-name="패스 902" d="m543.3 509.686.333-.1c-4.124-13.449-5.154-22.032-2.9-24.171l-.241-.253c-2.383 2.265-1.412 10.747 2.808 24.524z" transform="translate(-439.533 -402.541)" style="fill:#444053"/>
        <path data-name="패스 903" d="M500 620c.052.174.1.34.159.511l.113.37.035.108a314.81 314.81 0 0 0 2.173 6.691q.227.675.463 1.367a439.427 439.427 0 0 0 1.881 5.377c.091.26.185.523.279.78l.014.037c.159.44.318.883.482 1.328q.717 1.974 1.48 4.005l.4-.33q-.763-1.991-1.483-3.922l-.236-.635c-.08-.216-.161-.431-.239-.646-.127-.349-.253-.681-.377-1.019q-1-2.719-1.892-5.272c-.15-.436-.3-.873-.447-1.293a230.346 230.346 0 0 1-2.03-6.138c-.108-.349-.213-.681-.314-1.014l-.03-.094-.244-.124z" transform="translate(-396.532 -513.864)" style="fill:#444053"/>
        <path data-name="패스 904" d="M684.44 572.481a23.84 23.84 0 0 0 2.028 4.2c.4-.08.806-.159 1.222-.23q1.208-.209 2.34-.5c-1.47-1.84-3.414-3.536-5.59-3.47z" transform="translate(-611.269 -474.622)" style="fill:#143760"/>
        <path data-name="패스 905" d="M677.341 535.368s-4.353-8.08-7.461-7.955c0 0 2.365 8.152 7.293 9.372z" transform="translate(-596.039 -437.417)" style="fill:#143760"/>
        <path data-name="패스 906" d="M678.245 486.379s-3.082-8.944-6.244-9.389c0 0 1.187 7.452 6.005 10.107z" transform="translate(-597.313 -395.789)" style="fill:#143760"/>
        <path data-name="패스 907" d="M676.524 437.72s-3-7.072-5.615-7.93c0 0 1.374 8.552 5.218 9.773z" transform="translate(-595.402 -356.821)" style="fill:#143760"/>
        <path data-name="패스 908" d="m671.35 377.483-.862-12.923s-3.665 10.194.749 15.231z" transform="translate(-589.905 -302.969)" style="fill:#143760"/>
        <path data-name="패스 909" d="M639.4 314.194s2.4-9.747 3.157-10.354c0 0-5.972 6.775-4.527 14.559z" transform="translate(-555.652 -252.838)" style="fill:#143760"/>
        <path data-name="패스 910" d="m620 574.033 1.813 2.155a23.249 23.249 0 0 0 1.754-3.274 5.443 5.443 0 0 0-3.567 1.119z" transform="translate(-533.56 -474.966)" style="fill:#143760"/>
        <path data-name="패스 911" d="M638.37 529.385s2.967-8.688 6.044-9.075c0 0-.984 8.429-5.644 10.447z" transform="translate(-557.613 -431.554)" style="fill:#143760"/>
        <path data-name="패스 912" d="M635.41 486.42s3.372-8.838 6.548-9.18c0 0-1.431 7.41-6.332 9.906z" transform="translate(-554.641 -395.995)" style="fill:#143760"/>
        <path data-name="패스 913" d="M645.88 439.147s2.454-7.281 4.991-8.337c0 0-.716 8.641-4.456 10.147z" transform="translate(-565.381 -357.663)" style="fill:#143760"/>
        <path data-name="패스 914" d="m633.662 382.634 5.97-11.494s-.726 10.81-6.792 13.653z" transform="translate(-551.866 -308.401)" style="fill:#143760"/>
        <path data-name="패스 915" d="M604.292 331.9s7.639-6.513 7.843-7.459c0 0-3.38 8.377-10.995 10.569z" transform="translate(-518.837 -269.844)" style="fill:#143760"/>
        <path data-name="패스 916" d="M582.466 303.692s8.51-10.035 10.92-10.272a15.49 15.49 0 0 0-11.2 9.812z" transform="translate(-496.78 -244.234)" style="fill:#143760"/>
        <path data-name="패스 917" d="m642.99 372.019.349.009c.349-14.061 2.094-22.527 4.918-23.842l-.147-.316c-2.986 1.391-4.757 9.742-5.12 24.149z" transform="translate(-562.262 -289.192)" style="fill:#444053"/>
        <path data-name="패스 918" d="M669.851 488.337v1.436c.012 1.831.037 3.735.077 5.7 0 .276.012.552.017.829a.315.315 0 0 1 0 .04q.016.7.035 1.412t.042 1.482c.155-.049.311-.1.464-.154l-.052-1.438c0-.225-.016-.449-.023-.672s-.016-.466-.021-.7q-.019-.545-.035-1.084c-.056-1.93-.1-3.8-.12-5.6q0-.7-.014-1.37c-.021-2.29-.014-4.454.023-6.468q.011-.56.024-1.1v-.056l-.194-.2-.145-.147c0 .174 0 .349-.014.536v.508c-.048 2.17-.071 4.533-.064 7.046z" transform="translate(-589.18 -398.484)" style="fill:#444053"/>
        <path data-name="패스 919" d="M501.187 296s1.37.209 1.007 1.124a.237.237 0 0 1-.175.216s.012-.07-.129-.077a.612.612 0 0 1-.148-.024.312.312 0 0 1-.164-.112 1.088 1.088 0 0 1-.359-.894s-.08-.159-.068-.192l.208.147a.416.416 0 0 0-.082.3s.072-.293.113-.277a1.133 1.133 0 0 1 .106.084.686.686 0 0 0-.14.489s.037-.363.174-.459l.141.127a.728.728 0 0 0-.174.524 1.025 1.025 0 0 1 .2-.5l.122.145a.7.7 0 0 0-.164.48s.1-.429.188-.445a.943.943 0 0 1 .113.19s-.147.19-.108.316c0 0 .1-.279.131-.274a.956.956 0 0 1 .072.349.7.7 0 0 0-.037-.363.384.384 0 0 1 .175.143s.01-.14-.194-.2a.871.871 0 0 0-.1-.174.85.85 0 0 1 .321.108.381.381 0 0 0-.349-.148l-.119-.148a1.2 1.2 0 0 1 .384.087.48.48 0 0 0-.417-.122l-.136-.127a1.455 1.455 0 0 1 .373.047.578.578 0 0 0-.414-.082l-.1-.075h.283a.609.609 0 0 0-.325-.033 1.482 1.482 0 0 1-.209-.15z" transform="translate(-391.506 -246.362)" style="fill:#143760"/>
        <path data-name="패스 920" d="M501.187 296s1.37.209 1.007 1.124a.237.237 0 0 1-.175.216s.012-.07-.129-.077a.612.612 0 0 1-.148-.024.312.312 0 0 1-.164-.112 1.088 1.088 0 0 1-.359-.894s-.08-.159-.068-.192l.208.147a.416.416 0 0 0-.082.3s.072-.293.113-.277a1.133 1.133 0 0 1 .106.084.686.686 0 0 0-.14.489s.037-.363.174-.459l.141.127a.728.728 0 0 0-.174.524 1.025 1.025 0 0 1 .2-.5l.122.145a.7.7 0 0 0-.164.48s.1-.429.188-.445a.943.943 0 0 1 .113.19s-.147.19-.108.316c0 0 .1-.279.131-.274a.956.956 0 0 1 .072.349.7.7 0 0 0-.037-.363.384.384 0 0 1 .175.143s.01-.14-.194-.2a.871.871 0 0 0-.1-.174.85.85 0 0 1 .321.108.381.381 0 0 0-.349-.148l-.119-.148a1.2 1.2 0 0 1 .384.087.48.48 0 0 0-.417-.122l-.136-.127a1.455 1.455 0 0 1 .373.047.578.578 0 0 0-.414-.082l-.1-.075h.283a.609.609 0 0 0-.325-.033 1.482 1.482 0 0 1-.209-.15z" transform="translate(-391.506 -246.362)" style="opacity:.5"/>
        <path data-name="패스 921" d="M166.056 266.48s1.37.211 1.005 1.124a.239.239 0 0 1-.175.218s.012-.072-.129-.077a.613.613 0 0 1-.148-.024.326.326 0 0 1-.164-.113 1.086 1.086 0 0 1-.36-.892s-.08-.161-.068-.194l.208.147a.422.422 0 0 0-.082.3s.072-.295.113-.277a1.13 1.13 0 0 1 .106.082.7.7 0 0 0-.14.489s.038-.361.175-.459l.141.129a.724.724 0 0 0-.175.524 1.049 1.049 0 0 1 .2-.5l.122.145a.7.7 0 0 0-.164.48s.1-.429.188-.445a.943.943 0 0 1 .113.19s-.147.19-.108.316c0 0 .1-.279.133-.274a.969.969 0 0 1 .07.349.7.7 0 0 0-.037-.363.4.4 0 0 1 .175.143s.01-.138-.194-.2a.923.923 0 0 0-.1-.175.887.887 0 0 1 .321.108.38.38 0 0 0-.349-.148l-.117-.148a1.235 1.235 0 0 1 .382.087.475.475 0 0 0-.415-.122l-.136-.127a1.415 1.415 0 0 1 .373.049.579.579 0 0 0-.415-.084l-.1-.073s.175 0 .225.009.056-.009.056-.009a.6.6 0 0 0-.323-.033 1.4 1.4 0 0 1-.207-.152z" transform="translate(2.115 -221.99)" style="fill:#143760"/>
        <path data-name="패스 922" d="M166.056 266.48s1.37.211 1.005 1.124a.239.239 0 0 1-.175.218s.012-.072-.129-.077a.613.613 0 0 1-.148-.024.326.326 0 0 1-.164-.113 1.086 1.086 0 0 1-.36-.892s-.08-.161-.068-.194l.208.147a.422.422 0 0 0-.082.3s.072-.295.113-.277a1.13 1.13 0 0 1 .106.082.7.7 0 0 0-.14.489s.038-.361.175-.459l.141.129a.724.724 0 0 0-.175.524 1.049 1.049 0 0 1 .2-.5l.122.145a.7.7 0 0 0-.164.48s.1-.429.188-.445a.943.943 0 0 1 .113.19s-.147.19-.108.316c0 0 .1-.279.133-.274a.969.969 0 0 1 .07.349.7.7 0 0 0-.037-.363.4.4 0 0 1 .175.143s.01-.138-.194-.2a.923.923 0 0 0-.1-.175.887.887 0 0 1 .321.108.38.38 0 0 0-.349-.148l-.117-.148a1.235 1.235 0 0 1 .382.087.475.475 0 0 0-.415-.122l-.136-.127a1.415 1.415 0 0 1 .373.049.579.579 0 0 0-.415-.084l-.1-.073s.175 0 .225.009.056-.009.056-.009a.6.6 0 0 0-.323-.033 1.4 1.4 0 0 1-.207-.152z" transform="translate(2.115 -221.99)" style="opacity:.5"/>
        <path data-name="패스 923" d="M468.577 306.59s1.37.211 1.007 1.124a.239.239 0 0 1-.174.218s.012-.072-.129-.077a.613.613 0 0 1-.148-.024.326.326 0 0 1-.164-.113 1.086 1.086 0 0 1-.36-.892s-.08-.159-.068-.194l.208.147a.422.422 0 0 0-.082.3s.072-.295.113-.278a1.13 1.13 0 0 1 .107.082.686.686 0 0 0-.14.489s.037-.361.175-.459l.141.129a.724.724 0 0 0-.174.524 1.03 1.03 0 0 1 .2-.5l.12.145a.709.709 0 0 0-.162.48s.1-.429.188-.445a.943.943 0 0 1 .113.19s-.147.19-.108.316c0 0 .1-.279.131-.274a1 1 0 0 1 .072.349.7.7 0 0 0-.037-.361.389.389 0 0 1 .174.141s.009-.138-.194-.2a.923.923 0 0 0-.1-.174.873.873 0 0 1 .321.11.379.379 0 0 0-.349-.15l-.119-.147a1.236 1.236 0 0 1 .384.086.485.485 0 0 0-.417-.122l-.136-.127a1.485 1.485 0 0 1 .373.049.572.572 0 0 0-.414-.084l-.1-.073h.283a.609.609 0 0 0-.325-.033 1.48 1.48 0 0 1-.21-.152z" transform="translate(-353.205 -255.105)" style="fill:#143760"/>
        <path data-name="패스 924" d="M468.577 306.59s1.37.211 1.007 1.124a.239.239 0 0 1-.174.218s.012-.072-.129-.077a.613.613 0 0 1-.148-.024.326.326 0 0 1-.164-.113 1.086 1.086 0 0 1-.36-.892s-.08-.159-.068-.194l.208.147a.422.422 0 0 0-.082.3s.072-.295.113-.278a1.13 1.13 0 0 1 .107.082.686.686 0 0 0-.14.489s.037-.361.175-.459l.141.129a.724.724 0 0 0-.174.524 1.03 1.03 0 0 1 .2-.5l.12.145a.709.709 0 0 0-.162.48s.1-.429.188-.445a.943.943 0 0 1 .113.19s-.147.19-.108.316c0 0 .1-.279.131-.274a1 1 0 0 1 .072.349.7.7 0 0 0-.037-.361.389.389 0 0 1 .174.141s.009-.138-.194-.2a.923.923 0 0 0-.1-.174.873.873 0 0 1 .321.11.379.379 0 0 0-.349-.15l-.119-.147a1.236 1.236 0 0 1 .384.086.485.485 0 0 0-.417-.122l-.136-.127a1.485 1.485 0 0 1 .373.049.572.572 0 0 0-.414-.084l-.1-.073h.283a.609.609 0 0 0-.325-.033 1.48 1.48 0 0 1-.21-.152z" transform="translate(-353.205 -255.105)" style="opacity:.5"/>
        <path data-name="패스 925" d="M480.431 276.07s.845 1.1-.049 1.508a.237.237 0 0 1-.276.037s.058-.042-.04-.143a.722.722 0 0 1-.091-.12.331.331 0 0 1-.04-.2 1.1 1.1 0 0 1 .358-.894s.052-.175.084-.187l.049.25a.415.415 0 0 0-.265.159s.255-.164.274-.122c0 .009.019.133.019.133a.687.687 0 0 0-.438.257s.277-.236.445-.209l.012.19a.728.728 0 0 0-.485.265 1.028 1.028 0 0 1 .485-.223l-.012.188a.716.716 0 0 0-.45.234s.372-.237.443-.19a.9.9 0 0 1-.049.215s-.237.037-.3.154c0 0 .265-.133.284-.106a.975.975 0 0 1-.192.3.7.7 0 0 0 .23-.29.389.389 0 0 1 .026.222s.1-.094 0-.274a.914.914 0 0 0 .054-.2.844.844 0 0 1 .155.3.379.379 0 0 0-.15-.349l.016-.188a1.235 1.235 0 0 1 .218.326s.019-.175-.216-.375l-.01-.185a1.442 1.442 0 0 1 .236.291.567.567 0 0 0-.241-.349l-.023-.124s.126.124.157.162.047.033.047.033a.616.616 0 0 0-.211-.248 1.549 1.549 0 0 1-.054-.248z" transform="translate(-366.34 -229.908)" style="fill:#143760"/>
        <path data-name="패스 926" d="M480.431 276.07s.845 1.1-.049 1.508a.237.237 0 0 1-.276.037s.058-.042-.04-.143a.722.722 0 0 1-.091-.12.331.331 0 0 1-.04-.2 1.1 1.1 0 0 1 .358-.894s.052-.175.084-.187l.049.25a.415.415 0 0 0-.265.159s.255-.164.274-.122c0 .009.019.133.019.133a.687.687 0 0 0-.438.257s.277-.236.445-.209l.012.19a.728.728 0 0 0-.485.265 1.028 1.028 0 0 1 .485-.223l-.012.188a.716.716 0 0 0-.45.234s.372-.237.443-.19a.9.9 0 0 1-.049.215s-.237.037-.3.154c0 0 .265-.133.284-.106a.975.975 0 0 1-.192.3.7.7 0 0 0 .23-.29.389.389 0 0 1 .026.222s.1-.094 0-.274a.914.914 0 0 0 .054-.2.844.844 0 0 1 .155.3.379.379 0 0 0-.15-.349l.016-.188a1.235 1.235 0 0 1 .218.326s.019-.175-.216-.375l-.01-.185a1.442 1.442 0 0 1 .236.291.567.567 0 0 0-.241-.349l-.023-.124s.126.124.157.162.047.033.047.033a.616.616 0 0 0-.211-.248 1.549 1.549 0 0 1-.054-.248z" transform="translate(-366.34 -229.908)" style="opacity:.5"/>
        <path data-name="패스 927" d="M501.715 248.91s-3.677-.155-4.065-7.354 3.445-8.419 3.445-8.419a6.688 6.688 0 0 1 1.745-.707c.524-.028 2.337.141 2.337.141l-1.983-.382a27.613 27.613 0 0 1 3.627-1.148l-3.017.639s-.042-1.672.681-2.225c0 0-.616-.045-.946 1.159a2.3 2.3 0 0 1-1.377 1.546c-1.119.436-2.667 1.126-3.019 1.716 0 0-.651.681-.551-1.091a7.556 7.556 0 0 1 .749-3.333 5.209 5.209 0 0 1 3.2-1.5s-1.091-.44-2.932.935a1.886 1.886 0 0 1 .538-1.517c.693-.819 1.766-2.543 2.942-2.735 0 0-1.644-.1-2.948 2.026 0 0-.482.312-.524-.482a9.721 9.721 0 0 0-.326-1.785s-.4 1.827.44 2.649a7.9 7.9 0 0 0-1.531 4.421s-.5 1.063-.679-.185c0 0-.106-1.716-.321-3.173a4.313 4.313 0 0 1 .906-3.326c.349-.442.6-.873.462-1.094l-1.855 2.211s-1.562-3.613-2.691-4.386a9.162 9.162 0 0 1-1.276-.949l1.827 2.14-2.295-.808 2.295 1.063a6.287 6.287 0 0 1 1.672 3.23 20.288 20.288 0 0 1 .667 3.84s-3.274-2.593-3.9-2.508l2.119 1.6a5.045 5.045 0 0 1 1.99 3.682s-4.094-1.047-5.086-1.246l-1.871-1.92 1.417 1.822-2.918-.042-1.672-1.19s1.318 1.1 1.19 1.175-2.054.157-2.054.157 4.9-.03 5.44.325a5.193 5.193 0 0 0 1.745.482l-3.471.524 4.136-.3s3.131.567 3.3 1.545a18.573 18.573 0 0 1-1.063 2.323 10.874 10.874 0 0 0-1.2 3.883c-.141 1.559-.349 3.953.2 5.41s.737 2.288.462 2.728-.524 1.007.349 1.12 4.733-.058 4.733-.058 1.184.233.957-.629z" transform="translate(-393.451 -184.085)" style="fill:#143760"/>
        <path data-name="패스 928" d="M530.359 377.593a1.855 1.855 0 0 0-1.25-.157 7.479 7.479 0 0 1-1.92.056z" transform="translate(-424.155 -313.557)" style="opacity:.1;fill:#143760"/>
        <path data-name="패스 929" d="M539.689 329.94a12.605 12.605 0 0 0 .136 3.316z" transform="translate(-435.793 -274.383)" style="opacity:.1;fill:#143760"/>
        <path data-name="패스 930" d="M541.85 348.93s.225 2.6.372 3.1-.372-3.1-.372-3.1z" transform="translate(-438.602 -290.061)" style="opacity:.1;fill:#143760"/>
        <path data-name="패스 931" d="M546.108 312.39a3.274 3.274 0 0 0-.7 1.853c.145.411.7-1.853.7-1.853z" transform="translate(-443.08 -259.893)" style="opacity:.1;fill:#143760"/>
        <path data-name="패스 932" d="M535.807 304.16a2.165 2.165 0 0 0-.328 1.066c.064.236.328-1.066.328-1.066z" transform="translate(-431.047 -253.099)" style="opacity:.1;fill:#143760"/>
        <path data-name="패스 933" d="M551.88 330.8a10.541 10.541 0 0 1 .072 1.976 7.637 7.637 0 0 0 .021 1.5z" transform="translate(-450.077 -275.093)" style="opacity:.1;fill:#143760"/>
        <path data-name="패스 934" d="M503.8 277.15a.639.639 0 0 0-.134.408c0 .145.014.291 0 .436s-.082.333-.236.349z" transform="translate(-393.449 -230.799)" style="opacity:.1;fill:#143760"/>
        <path data-name="패스 935" d="M519.817 249.68a3.663 3.663 0 0 0-.511.635 1.452 1.452 0 0 1-.147.208 2.244 2.244 0 0 1-.281.23 1.328 1.328 0 0 0-.448.7z" transform="translate(-412.084 -208.121)" style="opacity:.1;fill:#143760"/>
        <path data-name="패스 936" d="M555.02 226a.917.917 0 0 0 .174.243c.065.061.138.113.2.175a1.5 1.5 0 0 1 .126.185 5.161 5.161 0 0 0 .524.661z" transform="translate(-454.692 -188.57)" style="opacity:.1;fill:#143760"/>
        <path data-name="패스 937" d="M541.525 249.44a.426.426 0 0 0-.15.384 1.1 1.1 0 0 1-.028.428c-.023.061-.063.113-.089.174a.82.82 0 0 0-.045.333c0 .129 0 .26.012.391a.677.677 0 0 0 .127.442z" transform="translate(-437.767 -207.922)" style="opacity:.1;fill:#143760"/>
        <path data-name="패스 938" d="M541.96 272.73a1.678 1.678 0 0 1 .318.218.567.567 0 0 1 .185.332 1.625 1.625 0 0 0 .016.164.54.54 0 0 0 .108.2 2.735 2.735 0 0 0 .269.3z" transform="translate(-439.229 -227.15)" style="fill:#143760"/>
        <path data-name="패스 939" d="M543.141 291.559a2.231 2.231 0 0 0-.257-.174 1.078 1.078 0 0 0-.264-.115 3.01 3.01 0 0 0-.435-.047.609.609 0 0 1-.4-.162z" transform="translate(-439.484 -242.283)" style="opacity:.1;fill:#143760"/>
        <path data-name="패스 940" d="M568.76 283.664a1.18 1.18 0 0 1 .506.089c.077.042.145.1.223.141a.677.677 0 0 0 .325.086z" transform="translate(-470.865 -236.176)" style="opacity:.1;fill:#143760"/>
        <path data-name="패스 941" d="M561.561 287.689a.1.1 0 0 0-.124.03c-.031.035-.047.08-.08.115a.349.349 0 0 1-.257.08z" transform="translate(-461.274 -239.491)" style="opacity:.1;fill:#143760"/>
        <path data-name="패스 942" d="m551.65 266.76.174.087a2.969 2.969 0 0 1 .489.3z" transform="translate(-450.378 -222.221)" style="opacity:.1;fill:#143760"/>
        <path data-name="패스 943" d="M542.24 276.032c.11-.026.2.089.223.2a3.019 3.019 0 0 0 .028.335.632.632 0 0 0 .162.244z" transform="translate(-439.076 -229.873)" style="opacity:.1;fill:#143760"/>
        <path data-name="패스 944" d="M533.945 277.2c.1.3-.11.62-.049.925.019.094.061.175.084.272a.831.831 0 0 1-.2.7z" transform="translate(-428.938 -230.841)" style="opacity:.1;fill:#143760"/>
        <g data-name="그룹 759" style="opacity:.5">
            <path data-name="패스 945" d="M108.264 64.825s-3.677-.155-4.065-7.354 3.445-8.419 3.445-8.419a6.688 6.688 0 0 1 1.745-.707c.524-.028 2.337.141 2.337.141l-1.983-.382a27.613 27.613 0 0 1 3.627-1.148l-3.017.639s-.042-1.672.681-2.225c0 0-.616-.045-.946 1.159a2.3 2.3 0 0 1-1.377 1.546c-1.119.436-2.667 1.126-3.019 1.716 0 0-.651.681-.551-1.091a7.556 7.556 0 0 1 .749-3.333 5.209 5.209 0 0 1 3.2-1.5s-1.091-.44-2.932.935a1.886 1.886 0 0 1 .538-1.517c.693-.819 1.766-2.543 2.942-2.735 0 0-1.644-.1-2.948 2.026 0 0-.482.312-.524-.482a9.721 9.721 0 0 0-.326-1.785s-.4 1.827.44 2.649a7.9 7.9 0 0 0-1.531 4.421s-.5 1.063-.679-.185c0 0-.106-1.716-.321-3.173a4.313 4.313 0 0 1 .906-3.326c.349-.442.6-.873.462-1.094l-1.855 2.211s-1.562-3.613-2.691-4.386a9.162 9.162 0 0 1-1.276-.949l1.827 2.14-2.295-.808 2.295 1.063a6.287 6.287 0 0 1 1.672 3.23 20.288 20.288 0 0 1 .667 3.84s-3.274-2.593-3.9-2.508l2.119 1.6a5.045 5.045 0 0 1 1.99 3.682s-4.094-1.047-5.086-1.246l-1.871-1.92 1.417 1.822-2.918-.042-1.672-1.19s1.318 1.1 1.19 1.175-2.054.157-2.054.157 4.9-.03 5.44.325a5.193 5.193 0 0 0 1.745.482l-3.471.524 4.136-.3s3.131.567 3.3 1.545a18.573 18.573 0 0 1-1.063 2.323 10.874 10.874 0 0 0-1.2 3.883c-.141 1.559-.349 3.953.2 5.41s.737 2.288.462 2.728-.524 1.007.349 1.12 4.733-.058 4.733-.058 1.184.233.957-.629z"/>
            <path data-name="패스 946" d="M530.359 377.593a1.855 1.855 0 0 0-1.25-.157 7.479 7.479 0 0 1-1.92.056z" transform="translate(-424.155 -313.545)" style="opacity:.1"/>
            <path data-name="패스 947" d="M539.689 329.94a12.605 12.605 0 0 0 .136 3.316z" transform="translate(-435.793 -274.376)" style="opacity:.1"/>
            <path data-name="패스 948" d="M541.85 348.93s.225 2.6.372 3.1-.372-3.1-.372-3.1z" transform="translate(-438.602 -290.051)" style="opacity:.1"/>
            <path data-name="패스 949" d="M546.108 312.39a3.274 3.274 0 0 0-.7 1.853c.145.411.7-1.853.7-1.853z" transform="translate(-443.079 -259.889)" style="opacity:.1"/>
            <path data-name="패스 950" d="M535.807 304.16a2.165 2.165 0 0 0-.328 1.066c.064.236.328-1.066.328-1.066z" transform="translate(-431.047 -253.095)" style="opacity:.1"/>
            <path data-name="패스 951" d="M551.88 330.8a10.541 10.541 0 0 1 .072 1.976 7.637 7.637 0 0 0 .021 1.5z" transform="translate(-450.077 -275.086)" style="opacity:.1"/>
            <path data-name="패스 952" d="M503.8 277.15a.639.639 0 0 0-.134.408c0 .145.014.291 0 .436s-.082.333-.236.349z" transform="translate(-393.449 -230.799)" style="opacity:.1"/>
            <path data-name="패스 953" d="M519.817 249.68a3.663 3.663 0 0 0-.511.635 1.452 1.452 0 0 1-.147.208 2.244 2.244 0 0 1-.281.23 1.328 1.328 0 0 0-.448.7z" transform="translate(-412.084 -208.123)" style="opacity:.1"/>
            <path data-name="패스 954" d="M555.02 226a.917.917 0 0 0 .174.243c.065.061.138.113.2.175a1.5 1.5 0 0 1 .126.185 5.161 5.161 0 0 0 .524.661z" transform="translate(-454.692 -188.576)" style="opacity:.1"/>
            <path data-name="패스 955" d="M541.525 249.44a.426.426 0 0 0-.15.384 1.1 1.1 0 0 1-.028.428c-.023.061-.063.113-.089.174a.82.82 0 0 0-.045.333c0 .129 0 .26.012.391a.677.677 0 0 0 .127.442z" transform="translate(-437.767 -207.925)" style="opacity:.1"/>
            <path data-name="패스 956" d="M102.731 45.58a1.678 1.678 0 0 1 .318.218.567.567 0 0 1 .185.332 1.625 1.625 0 0 0 .016.164.54.54 0 0 0 .108.2 2.735 2.735 0 0 0 .269.3z"/>
            <path data-name="패스 957" d="M543.141 291.559a2.231 2.231 0 0 0-.257-.174 1.078 1.078 0 0 0-.264-.115 3.01 3.01 0 0 0-.435-.047.609.609 0 0 1-.4-.162z" transform="translate(-439.484 -242.281)" style="opacity:.1"/>
            <path data-name="패스 958" d="M568.76 283.664a1.18 1.18 0 0 1 .506.089c.077.042.145.1.223.141a.677.677 0 0 0 .325.086z" transform="translate(-470.864 -236.175)" style="opacity:.1"/>
            <path data-name="패스 959" d="M561.561 287.689a.1.1 0 0 0-.124.03c-.031.035-.047.08-.08.115a.349.349 0 0 1-.257.08z" transform="translate(-461.274 -239.489)" style="opacity:.1"/>
            <path data-name="패스 960" d="m551.65 266.76.174.087a2.969 2.969 0 0 1 .489.3z" transform="translate(-450.378 -222.222)" style="opacity:.1"/>
            <path data-name="패스 961" d="M542.24 276.032c.11-.026.2.089.223.2a3.019 3.019 0 0 0 .028.335.632.632 0 0 0 .162.244z" transform="translate(-439.076 -229.873)" style="opacity:.1"/>
            <path data-name="패스 962" d="M533.945 277.2c.1.3-.11.62-.049.925.019.094.061.175.084.272a.831.831 0 0 1-.2.7z" transform="translate(-428.938 -230.84)" style="opacity:.1"/>
        </g>
        <path data-name="패스 963" d="M88.035 206.8s3.677-.155 4.065-7.354-3.445-8.419-3.445-8.419a6.648 6.648 0 0 0-1.754-.707c-.532-.028-2.337.141-2.337.141l1.984-.382a27.355 27.355 0 0 0-3.628-1.147l3.018.637s.044-1.672-.679-2.225c0 0 .616-.045.944 1.159a2.305 2.305 0 0 0 1.377 1.546c1.12.436 2.667 1.126 3.019 1.716 0 0 .653.681.553-1.091a7.7 7.7 0 0 0-.736-3.33 5.211 5.211 0 0 0-3.2-1.5s1.091-.44 2.932.935a1.878 1.878 0 0 0-.538-1.517c-.695-.819-1.771-2.55-2.948-2.735 0 0 1.644-.1 2.948 2.026 0 0 .482.312.524-.482a9.885 9.885 0 0 1 .326-1.785s.4 1.829-.44 2.649a7.889 7.889 0 0 1 1.531 4.421s.5 1.063.681-.183c0 0 .106-1.717.319-3.175a4.312 4.312 0 0 0-.9-3.326c-.349-.44-.6-.873-.464-1.094l1.855 2.211s1.559-3.613 2.693-4.393A9.327 9.327 0 0 0 97 178.45l-1.827 2.14 2.295-.806-2.295 1.061a6.343 6.343 0 0 0-1.672 3.23 20.059 20.059 0 0 0-.665 3.84s3.272-2.592 3.9-2.508l-2.117 1.6a5.047 5.047 0 0 0-1.991 3.682s4.094-1.047 5.086-1.246l1.871-1.92-1.417 1.813 2.918-.042 1.672-1.19s-1.318 1.1-1.19 1.176 2.054.155 2.054.155-4.9-.028-5.44.326a5.2 5.2 0 0 1-1.745.482l3.471.524-4.138-.3s-3.131.567-3.3 1.545a18.3 18.3 0 0 0 1.063 2.325 10.886 10.886 0 0 1 1.2 3.881c.143 1.558.339 3.953-.2 5.41s-.736 2.295-.468 2.735.524 1.005-.349 1.119-4.731-.058-4.731-.058-1.177.246-.95-.624z" transform="translate(80.121 -149.318)" style="fill:#143760"/>
        <path data-name="패스 964" d="M142.26 335.523a1.851 1.851 0 0 1 1.248-.157 7.483 7.483 0 0 0 1.92.056z" transform="translate(27.956 -278.825)" style="opacity:.1;fill:#143760"/>
        <path data-name="패스 965" d="M147.046 287.87a12.6 12.6 0 0 1-.136 3.316z" transform="translate(25.477 -239.65)" style="opacity:.1;fill:#143760"/>
        <path data-name="패스 966" d="M143.881 306.86s-.225 2.6-.382 3.1.382-3.1.382-3.1z" transform="translate(29.292 -255.328)" style="opacity:.1;fill:#143760"/>
        <path data-name="패스 967" d="M138.068 270.32a3.314 3.314 0 0 1 .707 1.853c-.137.411-.707-1.853-.707-1.853z" transform="translate(35.323 -225.161)" style="opacity:.1;fill:#143760"/>
        <path data-name="패스 968" d="M150.2 262.09a2.2 2.2 0 0 1 .328 1.066c-.06.236-.328-1.066-.328-1.066z" transform="translate(21.458 -218.366)" style="opacity:.1;fill:#143760"/>
        <path data-name="패스 969" d="M135.292 288.73a10.552 10.552 0 0 0-.072 1.976 7.631 7.631 0 0 1-.021 1.5z" transform="translate(39.323 -240.36)" style="opacity:.1;fill:#143760"/>
        <path data-name="패스 970" d="M182.06 235.08a.648.648 0 0 1 .133.408c0 .145-.014.291 0 .436s.084.333.236.349z" transform="translate(-15.991 -196.067)" style="opacity:.1;fill:#143760"/>
        <path data-name="패스 971" d="M161.23 207.61a3.665 3.665 0 0 1 .513.635 1.569 1.569 0 0 0 .145.208 2.376 2.376 0 0 0 .281.23 1.325 1.325 0 0 1 .449.7z" transform="translate(7.456 -173.388)" style="opacity:.1;fill:#143760"/>
        <path data-name="패스 972" d="M127.769 183.89a.883.883 0 0 1-.175.243c-.065.061-.138.113-.2.175a1.5 1.5 0 0 0-.126.185 5.007 5.007 0 0 1-.524.661z" transform="translate(48.321 -153.805)" style="opacity:.1;fill:#143760"/>
        <path data-name="패스 973" d="M144.614 207.37a.431.431 0 0 1 .152.384 1.065 1.065 0 0 0 .026.428c.024.061.063.113.089.175a.82.82 0 0 1 .042.333c0 .129 0 .26-.012.391a.667.667 0 0 1-.127.442z" transform="translate(28.047 -173.19)" style="opacity:.1;fill:#143760"/>
        <path data-name="패스 974" d="M141.415 230.66a1.664 1.664 0 0 0-.318.22.567.567 0 0 0-.185.33.588.588 0 0 1-.016.166.523.523 0 0 1-.108.2 2.69 2.69 0 0 1-.269.3z" transform="translate(32.272 -192.418)" style="fill:#143760"/>
        <path data-name="패스 975" d="M138.07 249.491a1.868 1.868 0 0 1 .257-.175 1.075 1.075 0 0 1 .264-.117 3.009 3.009 0 0 1 .435-.047.614.614 0 0 0 .4-.162z" transform="translate(34.692 -207.551)" style="opacity:.1;fill:#143760"/>
        <path data-name="패스 976" d="M113.862 241.594a1.148 1.148 0 0 0-.5.091c-.079.04-.147.1-.223.14a.669.669 0 0 1-.325.086z" transform="translate(64.661 -201.444)" style="opacity:.1;fill:#143760"/>
        <path data-name="패스 977" d="M123.86 245.624a.1.1 0 0 1 .124.028c.031.035.049.082.08.115a.359.359 0 0 0 .258.08z" transform="translate(52.272 -204.762)" style="opacity:.1;fill:#143760"/>
        <path data-name="패스 978" d="m132.811 224.7-.175.086a2.965 2.965 0 0 0-.487.3z" transform="translate(42.337 -187.497)" style="opacity:.1;fill:#143760"/>
        <path data-name="패스 979" d="M143.414 233.982c-.108-.026-.2.089-.222.2a3.024 3.024 0 0 1-.028.333.637.637 0 0 1-.164.244z" transform="translate(29.841 -195.157)" style="opacity:.1;fill:#143760"/>
        <path data-name="패스 980" d="M152.657 235.14c-.1.295.112.618.049.923-.017.094-.061.175-.084.272a.831.831 0 0 0 .2.7z" transform="translate(18.754 -196.116)" style="opacity:.1;fill:#143760"/>
        <g data-name="그룹 760" style="opacity:.5">
            <path data-name="패스 981" d="M168.156 57.482s3.677-.155 4.065-7.354-3.445-8.419-3.445-8.419a6.648 6.648 0 0 0-1.754-.707c-.532-.028-2.337.141-2.337.141l1.984-.382a27.355 27.355 0 0 0-3.628-1.147l3.018.637s.044-1.672-.679-2.225c0 0 .616-.045.944 1.159a2.305 2.305 0 0 0 1.377 1.546c1.12.436 2.667 1.126 3.019 1.716 0 0 .653.681.553-1.091a7.7 7.7 0 0 0-.736-3.33 5.211 5.211 0 0 0-3.2-1.5s1.091-.44 2.932.935a1.878 1.878 0 0 0-.538-1.517c-.695-.819-1.771-2.55-2.948-2.735 0 0 1.644-.1 2.948 2.026 0 0 .482.312.524-.482a9.885 9.885 0 0 1 .326-1.785s.4 1.829-.44 2.649a7.889 7.889 0 0 1 1.531 4.421s.5 1.063.681-.183c0 0 .106-1.717.319-3.175a4.312 4.312 0 0 0-.9-3.326c-.349-.44-.6-.873-.464-1.094l1.855 2.211s1.559-3.613 2.693-4.393a9.327 9.327 0 0 0 1.265-.946l-1.827 2.14 2.295-.806-2.295 1.061a6.343 6.343 0 0 0-1.672 3.23 20.059 20.059 0 0 0-.665 3.84s3.272-2.592 3.9-2.508l-2.117 1.6a5.047 5.047 0 0 0-1.991 3.682s4.094-1.047 5.086-1.246l1.871-1.92-1.417 1.813 2.918-.042 1.672-1.19s-1.318 1.1-1.19 1.176 2.054.155 2.054.155-4.9-.028-5.44.326a5.2 5.2 0 0 1-1.745.482l3.471.524-4.138-.3s-3.131.567-3.3 1.545a18.3 18.3 0 0 0 1.063 2.325 10.886 10.886 0 0 1 1.2 3.881c.143 1.558.339 3.953-.2 5.41s-.736 2.295-.468 2.735.524 1.005-.349 1.119-4.731-.058-4.731-.058-1.177.246-.95-.624z"/>
            <path data-name="패스 982" d="M142.26 335.523a1.851 1.851 0 0 1 1.248-.157 7.483 7.483 0 0 0 1.92.056z" transform="translate(27.956 -278.812)" style="opacity:.1"/>
            <path data-name="패스 983" d="M147.046 287.87a12.6 12.6 0 0 1-.136 3.316z" transform="translate(25.477 -239.642)" style="opacity:.1"/>
            <path data-name="패스 984" d="M143.881 306.86s-.225 2.6-.382 3.1.382-3.1.382-3.1z" transform="translate(29.291 -255.317)" style="opacity:.1"/>
            <path data-name="패스 985" d="M138.068 270.32a3.314 3.314 0 0 1 .707 1.853c-.137.411-.707-1.853-.707-1.853z" transform="translate(35.322 -225.155)" style="opacity:.1"/>
            <path data-name="패스 986" d="M150.2 262.09a2.2 2.2 0 0 1 .328 1.066c-.06.236-.328-1.066-.328-1.066z" transform="translate(21.458 -218.361)" style="opacity:.1"/>
            <path data-name="패스 987" d="M135.292 288.73a10.552 10.552 0 0 0-.072 1.976 7.631 7.631 0 0 1-.021 1.5z" transform="translate(39.323 -240.352)" style="opacity:.1"/>
            <path data-name="패스 988" d="M182.06 235.08a.648.648 0 0 1 .133.408c0 .145-.014.291 0 .436s.084.333.236.349z" transform="translate(-15.991 -196.065)" style="opacity:.1"/>
            <path data-name="패스 989" d="M161.23 207.61a3.665 3.665 0 0 1 .513.635 1.569 1.569 0 0 0 .145.208 2.376 2.376 0 0 0 .281.23 1.325 1.325 0 0 1 .449.7z" transform="translate(7.455 -173.389)" style="opacity:.1"/>
            <path data-name="패스 990" d="M127.769 183.89a.883.883 0 0 1-.175.243c-.065.061-.138.113-.2.175a1.5 1.5 0 0 0-.126.185 5.007 5.007 0 0 1-.524.661z" transform="translate(48.321 -153.809)" style="opacity:.1"/>
            <path data-name="패스 991" d="M144.614 207.37a.431.431 0 0 1 .152.384 1.065 1.065 0 0 0 .026.428c.024.061.063.113.089.175a.82.82 0 0 1 .042.333c0 .129 0 .26-.012.391a.667.667 0 0 1-.127.442z" transform="translate(28.046 -173.191)" style="opacity:.1"/>
            <path data-name="패스 992" d="M173.687 38.244a1.664 1.664 0 0 0-.318.22.567.567 0 0 0-.185.33.588.588 0 0 1-.016.166.523.523 0 0 1-.108.2 2.69 2.69 0 0 1-.269.3z"/>
            <path data-name="패스 993" d="M138.07 249.491a1.868 1.868 0 0 1 .257-.175 1.075 1.075 0 0 1 .264-.117 3.009 3.009 0 0 1 .435-.047.614.614 0 0 0 .4-.162z" transform="translate(34.692 -207.547)" style="opacity:.1"/>
            <path data-name="패스 994" d="M113.862 241.594a1.148 1.148 0 0 0-.5.091c-.079.04-.147.1-.223.14a.669.669 0 0 1-.325.086z" transform="translate(64.661 -201.441)" style="opacity:.1"/>
            <path data-name="패스 995" d="M123.86 245.624a.1.1 0 0 1 .124.028c.031.035.049.082.08.115a.359.359 0 0 0 .258.08z" transform="translate(52.272 -204.759)" style="opacity:.1"/>
            <path data-name="패스 996" d="m132.811 224.7-.175.086a2.965 2.965 0 0 0-.487.3z" transform="translate(42.336 -187.496)" style="opacity:.1"/>
            <path data-name="패스 997" d="M143.414 233.982c-.108-.026-.2.089-.222.2a3.024 3.024 0 0 1-.028.333.637.637 0 0 1-.164.244z" transform="translate(29.84 -195.155)" style="opacity:.1"/>
            <path data-name="패스 998" d="M152.657 235.14c-.1.295.112.618.049.923-.017.094-.061.175-.084.272a.831.831 0 0 0 .2.7z" transform="translate(18.754 -196.114)" style="opacity:.1"/>
        </g>
        <path data-name="패스 999" d="m248.04 523.761.045.068c.059.087.175.255.349.48l.642-.541.106-.089a2.414 2.414 0 0 0-1.142.082z" transform="translate(-94.261 -434.304)" style="fill:#143760"/>
        <path data-name="패스 1000" d="M224.2 474.606a19 19 0 0 0 5.442 6.44l1.635-1.379c-1.897-2.219-5.009-5.392-7.077-5.061z" transform="translate(-72.194 -393.8)" style="fill:#143760"/>
        <path data-name="패스 1001" d="M236.842 434.165s-4.953-5.874-7.7-5.925c0 0 3.84 7.775 7.866 7.8z" transform="translate(-78.785 -355.54)" style="fill:#143760"/>
        <path data-name="패스 1002" d="m240.46 369.436-4.628-12.1s-.5 10.82 5.2 14.334z" transform="translate(-83.979 -297.007)" style="fill:#143760"/>
        <path data-name="패스 1003" d="M250.434 299.5s-.576-10.023-.033-10.82c0 0-3.712 8.234-.038 15.246z" transform="translate(-95.634 -240.322)" style="fill:#143760"/>
        <path data-name="패스 1004" d="m195.166 460.812 2.981-2.511a20.507 20.507 0 0 0 .143-4.651c-1.733.75-2.656 4.342-3.124 7.162z" transform="translate(-34.21 -376.519)" style="fill:#143760"/>
        <path data-name="패스 1005" d="M216.1 421.806s.2-7.679 2.314-9.436c0 0 1.862 8.468-1.269 11.009z" transform="translate(-58.468 -342.439)" style="fill:#143760"/>
        <path data-name="패스 1006" d="m220.931 364.26 2.319-12.74s2.49 10.545-2.471 15.047z" transform="translate(-64.195 -292.203)" style="fill:#143760"/>
        <path data-name="패스 1007" d="M209.913 306.97s5.381-8.475 5.3-9.44c0 0-.764 9-7.386 13.337z" transform="translate(-53.27 -247.628)" style="fill:#143760"/>
        <path data-name="패스 1008" d="M199.26 275.353s5.175-12.1 7.408-13.033A15.488 15.488 0 0 0 198.86 275z" transform="translate(-43.162 -218.558)" style="fill:#143760"/>
        <path data-name="패스 1009" d="m230.7 357.087.335-.094c-3.8-13.543-4.628-22.149-2.323-24.233l-.234-.26c-2.442 2.211-1.678 10.712 2.222 24.587z" transform="translate(-72.455 -276.503)" style="fill:#444053"/>
        <path data-name="패스 1010" d="M219.13 467.61c.047.175.1.349.145.513.033.126.068.251.1.379q.017.054.031.11c.433 1.513.906 3.12 1.419 4.806l.3-.255q-.681-2.2-1.26-4.211a45.118 45.118 0 0 1-.244-.848c-.017-.065-.037-.129-.054-.194a.385.385 0 0 0-.021-.073l-.243-.129z" transform="translate(-61.164 -388.043)" style="fill:#444053"/>
        <path data-name="패스 1011" d="M254.7 511.151s3.7-6.731 6.388-7.321c0 0-2.232 8.377-6.18 9.2z" transform="translate(-107.327 -417.948)" style="fill:#143760"/>
        <path data-name="패스 1012" d="m273.172 448.77 2.162-12.77s2.618 10.513-2.285 15.077z" transform="translate(-125.474 -361.95)" style="fill:#143760"/>
        <path data-name="패스 1013" d="M288.5 382.55s-1.4-9.948-2.094-10.62c0 0 5.258 7.344 3.033 14.941z" transform="translate(-141.76 -309.053)" style="fill:#143760"/>
        <path data-name="패스 1014" d="M325.03 587.33s0 .25.033.677l.485-.408.047-.04a.309.309 0 0 0-.04-.023 2.077 2.077 0 0 0-.525-.206z" transform="translate(-184.109 -486.881)" style="fill:#143760"/>
        <path data-name="패스 1015" d="M305 544.2a20.124 20.124 0 0 0 1.867 6.447l1.941-1.647c-.982-2.25-2.319-4.486-3.808-4.8z" transform="translate(-163.826 -451.276)" style="fill:#143760"/>
        <path data-name="패스 1016" d="M292.207 507.868s-1.707-7.491-4.126-8.8c0 0-.161 8.667 3.408 10.545z" transform="translate(-144.272 -414.018)" style="fill:#143760"/>
        <path data-name="패스 1017" d="m292.623 450.4-4.778-12.042s-.372 10.829 5.379 14.269z" transform="translate(-145.247 -363.898)" style="fill:#143760"/>
        <path data-name="패스 1018" d="M296.019 396.935s-6.943-7.253-7.049-8.215c0 0 2.517 8.672 9.862 11.625z" transform="translate(-151.053 -322.914)" style="fill:#143760"/>
        <path data-name="패스 1019" d="M312.886 367.263s-7.452-10.843-9.826-11.323a15.488 15.488 0 0 1 10.147 10.894z" transform="translate(-167.886 -295.851)" style="fill:#143760"/>
        <path data-name="패스 1020" d="m290.43 440.888-.349-.026c1.075-14.03.185-22.63-2.485-24.222l.174-.3c2.837 1.686 3.753 10.173 2.66 24.548z" transform="translate(-142.859 -345.722)" style="fill:#444053"/>
        <path data-name="패스 1021" d="M289.8 552.5c-.009.11-.017.222-.028.333l.379-.319.035-.435a.467.467 0 0 1 .009-.11l.03-.393c.01-.14.021-.278.033-.415v-.117l-.159.131-.211.175v.038a.277.277 0 0 0 0 .038l-.035.443v.092q-.032.259-.053.539z" transform="translate(-142.615 -456.921)" style="fill:#444053"/>
    </g>
</svg>
